<svg width="1801px" height="336px" viewBox="0 0 1801 336" xmlns="http://www.w3.org/2000/svg">
  <g fill="none" fill-rule="evenodd">
    <g transform="translate(25 97)">
      <rect stroke="#979797" stroke-width="3" fill="#FFF" x="-1.5" y="-1.5" width="193" height="199" rx="10"/>
      <path d="M24 33.3h2.6c3.7 0 5.6-2.3 5.6-6 0-3.6-2-5.9-5.6-5.9H24v11.9zm-4 3.4V18h6.8c5.8 0 9.4 3.7 9.4 9.3 0 5.7-3.6 9.4-9.4 9.4H20zm31.6-6.8c0 4.2-2.8 7.1-6.8 7.1S38 34 38 30c0-4.3 2.7-7.2 6.8-7.2 4 0 6.8 2.9 6.8 7.1zm-3.8 0c0-2.3-1-4-3-4s-3 1.7-3 4 1 3.9 3 3.9 3-1.6 3-3.9zm5.4 0c0-4.2 2.7-7.1 6.7-7.1 3.5 0 5.7 2 6.1 4.9h-3.8c-.2-1-1-1.7-2.3-1.7-1.8 0-2.9 1.6-2.9 4 0 2.2 1.1 3.8 2.9 3.8 1.2 0 2-.7 2.3-1.7H66c-.4 3-2.6 4.9-6.1 4.9-4 0-6.7-2.9-6.7-7z" fill="#3D4251" fill-rule="nonzero"/>
      <path fill="#FF2374" d="M18 59h140v20H18z"/>
      <path fill="#9160CD" d="M18 90h119v20H18z"/>
      <path fill="#6A90E3" d="M18 121h150v20H18z"/>
      <path fill="#90E8FF" d="M18 152h60v20H18z"/>
    </g>
    <g transform="translate(1369 104)">
      <rect stroke="#979797" stroke-width="3" fill="#FFF" x="-1.5" y="-1.5" width="193" height="199" rx="10"/>
      <path d="M24 33.3h2.6c3.7 0 5.6-2.3 5.6-6 0-3.6-2-5.9-5.6-5.9H24v11.9zm-4 3.4V18h6.8c5.8 0 9.4 3.7 9.4 9.3 0 5.7-3.6 9.4-9.4 9.4H20zm31.6-6.8c0 4.2-2.8 7.1-6.8 7.1S38 34 38 30c0-4.3 2.7-7.2 6.8-7.2 4 0 6.8 2.9 6.8 7.1zm-3.8 0c0-2.3-1-4-3-4s-3 1.7-3 4 1 3.9 3 3.9 3-1.6 3-3.9zm5.4 0c0-4.2 2.7-7.1 6.7-7.1 3.5 0 5.7 2 6.1 4.9h-3.8c-.2-1-1-1.7-2.3-1.7-1.8 0-2.9 1.6-2.9 4 0 2.2 1.1 3.8 2.9 3.8 1.2 0 2-.7 2.3-1.7H66c-.4 3-2.6 4.9-6.1 4.9-4 0-6.7-2.9-6.7-7z" fill="#3D4251" fill-rule="nonzero"/>
      <path fill="#FF2374" d="M18 59h140v20H18z"/>
      <path fill="#9160CD" d="M18 90h119v20H18z"/>
      <path fill="#6A90E3" d="M18 121h150v20H18z"/>
      <path fill="#90E8FF" d="M18 152h60v20H18z"/>
    </g>
    <g transform="translate(525 18)">
      <rect fill="#DFD9D9" x="10" y="84" width="180" height="215" rx="10"/>
      <path fill="#1E1935" d="M24 99h119v100H24z"/>
      <path fill="#9160CD" d="M24 179h119v20H24z"/>
      <path fill="#90E8FF" d="M24 119h60v20H24z"/>
      <path fill="#60CD9B" d="M24 139h82v20H24z"/>
      <path fill="#ACCD60" d="M24 99h35v20H24z"/>
      <path fill="#E2A91A" d="M24 159h93v20H24z"/>
      <g>
        <path fill="#1E1935" d="M25 224h150v60H25z"/>
        <path fill="#FF2374" d="M25 224h140v20H25z"/>
        <path fill="#6A90E3" d="M25 264h150v20H25z"/>
        <path fill="#FD6B46" d="M25 244h140v20H25z"/>
      </g>
      <path d="M61 10.2c1.9.6 3.2 2.3 3.2 4.4 0 3.5-2.4 5.4-6.4 5.4H50V1h7.3c4 0 6.4 1.7 6.4 5.1 0 2-1.1 3.6-2.5 4zm-7.3-1.4H57c2 0 3-.8 3-2.3 0-1.5-1-2.2-3-2.2h-3.2v4.5zm0 3v4.9h3.8c1.8 0 2.8-1 2.8-2.4 0-1.5-1-2.4-2.8-2.4h-3.8zM78.3 20h-3.7v-.7c-.5.4-1.9 1-3.4 1-2.8 0-5.1-1.7-5.1-4.5 0-2.7 2.3-4.5 5.3-4.5 1.2 0 2.6.4 3.2.8v-1c0-1.2-.7-2.1-2.3-2.1-1 0-1.7.5-2 1.3h-3.7c.4-2.5 2.7-4.5 5.8-4.5 3.7 0 5.9 2 5.9 5.4V20zm-3.7-3.8v-1c-.4-.7-1.4-1.2-2.5-1.2-1.2 0-2.5.5-2.5 1.7s1.3 1.7 2.5 1.7c1 0 2.1-.4 2.5-1.2zm7.6-.4V9.2h-2v-3h2V2.3H86V6h3v3.1h-3v6.1c0 1.1.6 1.6 1.6 1.6.6 0 1.3-.2 1.7-.5v3.4c-.5.3-1.5.5-2.5.5-2.8 0-4.6-1.4-4.6-4.5zm9-2.7c0-4.3 2.8-7.3 6.7-7.3 3.5 0 5.7 2 6 5h-3.7c-.2-1-1-1.7-2.3-1.7-1.8 0-2.9 1.6-2.9 4 0 2.3 1.1 4 2.9 4 1.2 0 2-.7 2.3-1.8h3.8c-.4 3-2.6 5-6.1 5-4 0-6.7-3-6.7-7.2zm15.1 6.9V-.1h3.9v7.5a5 5 0 0 1 3.7-1.6c3.1 0 4.9 2 4.9 5.1V20h-3.9v-8.2c0-1.5-.7-2.5-2.2-2.5-1.2 0-2.2.7-2.5 2V20h-3.9zm24.1-4.5h3.6c-.5 3-2.7 4.8-6.2 4.8-4 0-6.7-3-6.7-7.2s2.8-7.3 6.7-7.3c4 0 6.3 2.9 6.3 7v1h-9.3c.2 2.2 1.3 3.4 3 3.4 1.3 0 2.3-.5 2.6-1.7zM127.8 9c-1.5 0-2.5.9-2.9 2.6h5.4c0-1.5-1-2.6-2.5-2.6zm17.6 11v-1.1c-.6.7-2 1.4-3.5 1.4-4 0-6.3-3.2-6.3-7.2s2.3-7.3 6.3-7.3c1.5 0 2.9.7 3.5 1.5V-.2h3.9V20h-3.9zm0-4.7v-4.5a3 3 0 0 0-2.6-1.6c-2 0-3.3 1.7-3.3 3.9s1.2 3.9 3.3 3.9c1.2 0 2.2-.7 2.6-1.7zM1 47h3.8c.3 1 1.2 1.5 2.3 1.5 1.2 0 2-.5 2-1.4 0-.6-.4-.9-1.4-1.1l-2.8-.7c-2.1-.5-3.6-1.5-3.6-3.9 0-2.7 2.4-4.5 5.5-4.5 3.5 0 5.5 1.7 6 4.3H9c-.3-.8-1-1.4-2.2-1.4-1 0-1.8.5-1.8 1.3 0 .6.3 1 1.2 1.1l2.9.7c2.4.6 3.6 2 3.6 4 0 2.8-2.4 4.5-5.6 4.5-3.4 0-5.8-1.6-6.2-4.4zm22.9-.4h3.5c-.4 3-2.6 4.8-6 4.8-4.1 0-6.8-3-6.8-7.2s2.8-7.3 6.6-7.3c4.1 0 6.3 2.9 6.3 7v1h-9.2c.1 2.2 1.3 3.4 3 3.4 1.3 0 2.3-.5 2.6-1.7zM21.2 40c-1.5 0-2.6.9-2.9 2.6h5.4c0-1.5-1-2.6-2.5-2.6zm8.7 11V37.1h3.8v1.3a5 5 0 0 1 3.8-1.6c3 0 4.9 2 4.9 5.1V51h-3.9v-8.2c0-1.5-.7-2.5-2.3-2.5-1.1 0-2.2.7-2.5 2V51H30zm16.5-4.2v-6.6h-2.1v-3h2v-3.8h3.9V37h3v3.1h-3v6.1c0 1.1.6 1.6 1.6 1.6.6 0 1.2-.2 1.6-.5v3.4c-.5.3-1.4.5-2.4.5-2.9 0-4.6-1.4-4.6-4.5zm18.3-.3h3.5c-.5 3-2.6 4.8-6.1 4.8-4 0-6.7-3-6.7-7.2s2.8-7.3 6.6-7.3c4.1 0 6.3 2.9 6.3 7v1h-9.2c.1 2.2 1.3 3.4 3 3.4 1.3 0 2.3-.5 2.6-1.7zM62 40c-1.5 0-2.6.9-3 2.6h5.4c0-1.5-.9-2.6-2.4-2.6zm8.7 11V37.1h3.8v1.3a5 5 0 0 1 3.7-1.6c3.2 0 5 2 5 5.1V51h-3.9v-8.2c0-1.5-.7-2.5-2.3-2.5-1.1 0-2.2.7-2.5 2V51h-3.8zm14.8-7c0-4.2 2.7-7.2 6.6-7.2 3.5 0 5.7 2 6.1 5h-3.8c-.2-1-1-1.7-2.3-1.7-1.7 0-2.8 1.6-2.8 4 0 2.3 1 4 2.8 4 1.3 0 2.1-.7 2.3-1.8h3.8c-.4 3-2.6 5-6 5-4 0-6.7-3-6.7-7.2zm23.5 2.5h3.6c-.5 3-2.7 4.8-6.2 4.8-4 0-6.7-3-6.7-7.2s2.8-7.3 6.7-7.3c4 0 6.3 2.9 6.3 7v1h-9.3c.1 2.2 1.3 3.4 3 3.4 1.3 0 2.3-.5 2.6-1.7zm-2.6-6.5c-1.5 0-2.6.9-2.9 2.6h5.4c0-1.5-1-2.6-2.5-2.6zm19.1-2.9V51h-3.8V37.1h3.8zm.4-4c0 1.3-1.1 2.2-2.3 2.2-1.2 0-2.3-.9-2.3-2.2 0-1.2 1-2.2 2.3-2.2 1.2 0 2.3 1 2.3 2.2zm3 17.9V37.1h3.8v1.3a5 5 0 0 1 3.7-1.6c3.2 0 5 2 5 5.1V51h-4v-8.2c0-1.5-.7-2.5-2.2-2.5-1.2 0-2.2.7-2.5 2V51H129zm19.5-1.1V56h-3.9v-19h3.9v1.2c.6-.8 2-1.5 3.4-1.5 4 0 6.4 3.4 6.4 7.3s-2.3 7.2-6.4 7.2c-1.5 0-2.8-.7-3.4-1.4zm0-8.1v4.6A3 3 0 0 0 151 48c2 0 3.3-1.7 3.3-4 0-2.1-1.3-3.8-3.3-3.8a3 3 0 0 0-2.6 1.6zM173 37V51H169v-1.3a5 5 0 0 1-3.7 1.6c-3 0-4.8-2-4.8-5.1v-9h3.8v8.2c0 1.5.7 2.5 2.2 2.5 1.2 0 2.2-.7 2.5-2v-8.8h3.9zm4.1 9.7v-6.6h-2v-3h2v-3.8h3.9V37h3v3.1h-3v6.1c0 1.1.5 1.6 1.5 1.6.6 0 1.3-.2 1.7-.5v3.4c-.5.3-1.4.5-2.5.5-2.8 0-4.6-1.4-4.6-4.5zm9 0h3.8c.3 1 1.2 1.6 2.3 1.6 1.2 0 2-.5 2-1.4 0-.6-.4-.9-1.4-1.1l-2.8-.7c-2.1-.5-3.6-1.5-3.6-3.9 0-2.7 2.4-4.5 5.5-4.5 3.5 0 5.5 1.7 6 4.3h-3.7c-.3-.8-1-1.4-2.2-1.4-1 0-1.8.5-1.8 1.3 0 .6.3 1 1.2 1.1l2.9.7c2.4.6 3.6 2 3.6 4 0 2.8-2.4 4.5-5.6 4.5-3.4 0-5.8-1.6-6.2-4.4z" fill="#3D4251" fill-rule="nonzero"/>
    </g>
    <g transform="translate(1058 17)">
      <rect fill="#DFD9D9" x="12" y="85" width="180" height="215" rx="10"/>
      <path fill="#1E1935" d="M26 100h119v100H26z"/>
      <path fill="#9160CD" d="M26 180h119v20H26z"/>
      <path fill="#90E8FF" d="M26 120h60v20H26z"/>
      <path fill="#60CD9B" d="M26 140h82v20H26z"/>
      <path fill="#ACCD60" d="M26 100h35v20H26z"/>
      <path fill="#E2A91A" d="M26 160h93v20H26z"/>
      <g>
        <path fill="#1E1935" d="M27 225h150v60H27z"/>
        <path fill="#FF2374" d="M27 225h140v20H27z"/>
        <path fill="#6A90E3" d="M27 265h150v20H27z"/>
        <path fill="#FD6B46" d="M27 245h140v20H27z"/>
      </g>
      <path d="M69.6 11.2c1.8.6 3 2.3 3 4.4 0 3.5-2.3 5.4-6.3 5.4h-7.9V2h7.3C69.7 2 72 3.7 72 7c0 2-1.1 3.6-2.5 4zm-7.4-1.4h3.2c2 0 3-.8 3-2.3 0-1.5-1-2.2-3-2.2h-3.2v4.5zm0 3v4.9H66c1.8 0 2.8-1 2.8-2.4 0-1.5-1-2.4-2.8-2.4h-3.8zM86.8 21H83v-.7c-.5.4-1.9 1-3.4 1-2.8 0-5.1-1.7-5.1-4.5 0-2.7 2.3-4.5 5.3-4.5 1.2 0 2.6.4 3.2.8v-1c0-1.2-.7-2.1-2.3-2.1-1 0-1.7.5-2 1.3H75c.4-2.5 2.7-4.5 5.8-4.5 3.7 0 5.9 2 5.9 5.4V21zM83 17.2v-1c-.4-.7-1.4-1.2-2.5-1.2-1.2 0-2.5.5-2.5 1.7s1.3 1.7 2.5 1.7c1 0 2.1-.4 2.5-1.2zm7.6-.4v-6.6h-2v-3h2V3.3h3.8V7h3v3.1h-3v6.1c0 1.1.6 1.6 1.6 1.6.6 0 1.3-.2 1.7-.5v3.4c-.5.3-1.5.5-2.5.5-2.8 0-4.6-1.4-4.6-4.5zm9-2.7c0-4.3 2.8-7.3 6.7-7.3 3.5 0 5.7 2 6 5h-3.7c-.2-1-1-1.7-2.3-1.7-1.8 0-2.9 1.6-2.9 4 0 2.3 1.1 4 2.9 4 1.2 0 2-.7 2.3-1.8h3.8c-.4 3-2.6 5-6.1 5-4 0-6.7-3-6.7-7.2zm15.1 6.9V.9h3.9v7.5a5 5 0 0 1 3.7-1.6c3.1 0 4.9 2 4.9 5.1V21h-3.9v-8.2c0-1.5-.7-2.5-2.2-2.5-1.2 0-2.2.7-2.5 2V21h-3.9zm24.1-4.5h3.6c-.5 3-2.7 4.8-6.2 4.8-4 0-6.7-3-6.7-7.2s2.8-7.3 6.7-7.3c4 0 6.3 2.9 6.3 7v1h-9.3c.2 2.2 1.3 3.4 3 3.4 1.3 0 2.3-.5 2.6-1.7zm-2.6-6.5c-1.5 0-2.5.9-2.9 2.6h5.4c0-1.5-1-2.6-2.5-2.6zm17.6 11v-1.1c-.6.7-2 1.4-3.5 1.4-4 0-6.3-3.2-6.3-7.2s2.3-7.3 6.3-7.3c1.5 0 2.9.7 3.5 1.5V.8h3.9V21h-3.9zm0-4.6v-4.6a3 3 0 0 0-2.6-1.6c-2 0-3.3 1.7-3.3 3.9s1.2 3.9 3.3 3.9c1.2 0 2.2-.7 2.6-1.6zM.1 47.9h3.8c.3 1 1.2 1.5 2.3 1.5 1.2 0 2-.5 2-1.4 0-.6-.4-.9-1.4-1.1L4 46.2C2 45.7.4 44.7.4 42.3c0-2.7 2.4-4.5 5.5-4.5 3.5 0 5.5 1.7 6 4.3H8.1c-.3-.8-1-1.4-2.2-1.4-1 0-1.8.5-1.8 1.3 0 .6.3 1 1.2 1.1l2.9.7c2.4.6 3.6 2 3.6 4 0 2.8-2.4 4.5-5.6 4.5C2.9 52.3.5 50.7 0 48zm22.9-.4h3.5c-.4 3-2.6 4.8-6 4.8-4.1 0-6.8-3-6.8-7.2s2.8-7.3 6.6-7.3c4.1 0 6.3 2.9 6.3 7v1h-9.2c.1 2.2 1.3 3.4 3 3.4 1.3 0 2.3-.5 2.6-1.7zM20.4 41c-1.5 0-2.6.9-2.9 2.6h5.4c0-1.5-1-2.6-2.5-2.6zM29 52V38.1h3.8v1.3a5 5 0 0 1 3.8-1.6c3 0 4.9 2 4.9 5.1V52h-3.9v-8.2c0-1.5-.7-2.5-2.3-2.5-1.1 0-2.2.7-2.5 2V52h-3.8zm16.5-4.2v-6.6h-2.1v-3h2v-3.8h3.9V38h3v3.1h-3v6.1c0 1.1.6 1.6 1.6 1.6.6 0 1.2-.2 1.6-.5v3.4c-.5.3-1.4.5-2.4.5-2.9 0-4.6-1.4-4.6-4.5zm18.3-.3h3.5c-.5 3-2.6 4.8-6.1 4.8-4 0-6.7-3-6.7-7.2s2.8-7.3 6.6-7.3c4.1 0 6.3 2.9 6.3 7v1h-9.2c.1 2.2 1.3 3.4 3 3.4 1.3 0 2.3-.5 2.6-1.7zM61.3 41c-1.5 0-2.6.9-3 2.6h5.4c0-1.5-.9-2.6-2.4-2.6zM70 52V38.1h3.8v1.3a5 5 0 0 1 3.7-1.6c3.2 0 5 2 5 5.1V52h-3.9v-8.2c0-1.5-.7-2.5-2.3-2.5-1.1 0-2.2.7-2.5 2V52H70zm14.8-7c0-4.2 2.7-7.2 6.6-7.2 3.5 0 5.7 2 6.1 5h-3.8c-.2-1-1-1.7-2.3-1.7-1.7 0-2.8 1.6-2.8 4 0 2.3 1 4 2.8 4 1.3 0 2.1-.7 2.3-1.8h3.8c-.4 3-2.6 5-6 5-4 0-6.7-3-6.7-7.2zm23.5 2.5h3.6c-.5 3-2.7 4.8-6.2 4.8-4 0-6.7-3-6.7-7.2s2.8-7.3 6.7-7.3c4 0 6.3 2.9 6.3 7v1h-9.3c.1 2.2 1.3 3.4 3 3.4 1.3 0 2.3-.5 2.6-1.7zm-2.6-6.5c-1.5 0-2.6.9-2.9 2.6h5.4c0-1.5-1-2.6-2.5-2.6zm28 4c0 4.3-2.8 7.3-6.8 7.3s-6.8-3-6.8-7.2c0-4.3 2.8-7.3 6.8-7.3s6.8 3 6.8 7.3zm-3.8 0c0-2.2-1-4-3-4s-3 1.8-3 4c0 2.4 1 4 3 4s3-1.6 3-4zm18.5-6.9V52h-3.8v-1.3a5 5 0 0 1-3.8 1.6c-3 0-4.8-2-4.8-5.1v-9h3.8v8.2c0 1.5.7 2.5 2.3 2.5 1.1 0 2.2-.7 2.4-2v-8.8h4zm4.2 9.7v-6.6h-2.1v-3h2v-3.8h3.9V38h3v3.1h-3v6.1c0 1.1.6 1.6 1.6 1.6.5 0 1.2-.2 1.6-.5v3.4c-.5.3-1.4.5-2.4.5-2.9 0-4.6-1.4-4.6-4.5zm13.7 3v6.3h-3.9v-19h3.9v1.2c.6-.8 2-1.5 3.4-1.5 4 0 6.4 3.4 6.4 7.3s-2.3 7.2-6.4 7.2c-1.5 0-2.8-.7-3.4-1.4zm0-8v4.6a3 3 0 0 0 2.6 1.6c2 0 3.3-1.7 3.3-4 0-2.1-1.3-3.8-3.3-3.8a3 3 0 0 0-2.6 1.6zm24.5-4.7V52h-3.9v-1.3a5 5 0 0 1-3.7 1.6c-3 0-4.8-2-4.8-5.1v-9h3.8v8.2c0 1.5.7 2.5 2.2 2.5 1.2 0 2.2-.7 2.5-2v-8.8h3.9zm4.1 9.7v-6.6h-2v-3h2v-3.8h3.9V38h3v3.1h-3v6.1c0 1.1.5 1.6 1.5 1.6.6 0 1.3-.2 1.7-.5v3.4c-.5.3-1.4.5-2.5.5-2.8 0-4.6-1.4-4.6-4.5zm9 0h3.8c.3 1 1.2 1.6 2.3 1.6 1.2 0 2-.5 2-1.4 0-.6-.4-.9-1.4-1.1l-2.8-.7c-2.1-.5-3.6-1.5-3.6-3.9 0-2.7 2.4-4.5 5.5-4.5 3.5 0 5.5 1.7 6 4.3H212c-.3-.8-1-1.4-2.2-1.4-1 0-1.8.5-1.8 1.3 0 .6.3 1 1.2 1.1l2.9.7c2.4.6 3.6 2 3.6 4 0 2.8-2.4 4.5-5.6 4.5-3.4 0-5.8-1.6-6.2-4.4z" fill="#3D4251" fill-rule="nonzero"/>
    </g>
    <g transform="translate(1093 124)" fill="#FFF">
      <circle cx="2.5" cy="128.5" r="2.5"/>
      <circle cx="2.5" cy="148.5" r="2.5"/>
      <circle cx="2.5" cy="167.5" r="2.5"/>
      <circle cx="2.5" cy="2.5" r="2.5"/>
      <circle cx="2.5" cy="22.5" r="2.5"/>
      <circle cx="2.5" cy="42.5" r="2.5"/>
      <circle cx="2.5" cy="63.5" r="2.5"/>
      <circle cx="2.5" cy="83.5" r="2.5"/>
    </g>
    <g transform="translate(239 97)">
      <rect stroke="#979797" stroke-width="3" fill="#FFF" x="-1.5" y="-1.5" width="193" height="199" rx="10"/>
      <path d="M24 33.3h2.6c3.7 0 5.6-2.3 5.6-6 0-3.6-2-5.9-5.6-5.9H24v11.9zm-4 3.4V18h6.8c5.8 0 9.4 3.7 9.4 9.3 0 5.7-3.6 9.4-9.4 9.4H20zm31.6-6.8c0 4.2-2.8 7.1-6.8 7.1S38 34 38 30c0-4.3 2.7-7.2 6.8-7.2 4 0 6.8 2.9 6.8 7.1zm-3.8 0c0-2.3-1-4-3-4s-3 1.7-3 4 1 3.9 3 3.9 3-1.6 3-3.9zm5.4 0c0-4.2 2.7-7.1 6.7-7.1 3.5 0 5.7 2 6.1 4.9h-3.8c-.2-1-1-1.7-2.3-1.7-1.8 0-2.9 1.6-2.9 4 0 2.2 1.1 3.8 2.9 3.8 1.2 0 2-.7 2.3-1.7H66c-.4 3-2.6 4.9-6.1 4.9-4 0-6.7-2.9-6.7-7z" fill="#3D4251" fill-rule="nonzero"/>
      <path fill="#60CD9B" d="M18 59h82v20H18z"/>
      <path fill="#ACCD60" d="M18 90h35v20H18z"/>
      <path fill="#E2A91A" d="M18 121h93v20H18z"/>
      <path fill="#FD6B46" d="M18 152h140v20H18z"/>
    </g>
    <g transform="translate(1583 104)">
      <rect stroke="#979797" stroke-width="3" fill="#FFF" x="-1.5" y="-1.5" width="193" height="199" rx="10"/>
      <path d="M24 33.3h2.6c3.7 0 5.6-2.3 5.6-6 0-3.6-2-5.9-5.6-5.9H24v11.9zm-4 3.4V18h6.8c5.8 0 9.4 3.7 9.4 9.3 0 5.7-3.6 9.4-9.4 9.4H20zm31.6-6.8c0 4.2-2.8 7.1-6.8 7.1S38 34 38 30c0-4.3 2.7-7.2 6.8-7.2 4 0 6.8 2.9 6.8 7.1zm-3.8 0c0-2.3-1-4-3-4s-3 1.7-3 4 1 3.9 3 3.9 3-1.6 3-3.9zm5.4 0c0-4.2 2.7-7.1 6.7-7.1 3.5 0 5.7 2 6.1 4.9h-3.8c-.2-1-1-1.7-2.3-1.7-1.8 0-2.9 1.6-2.9 4 0 2.2 1.1 3.8 2.9 3.8 1.2 0 2-.7 2.3-1.7H66c-.4 3-2.6 4.9-6.1 4.9-4 0-6.7-2.9-6.7-7z" fill="#3D4251" fill-rule="nonzero"/>
      <path fill="#60CD9B" d="M18 59h82v20H18z"/>
      <path fill="#ACCD60" d="M18 90h35v20H18z"/>
      <path fill="#E2A91A" d="M18 121h93v20H18z"/>
      <path fill="#FD6B46" d="M18 152h140v20H18z"/>
    </g>
    <path fill="#CCC" d="M843 158.2l-5.4-3.2-4.6 2.8 5.4 3.2 4.6-2.8"/>
    <path fill="#676767" d="M849.2 155l-9.1 5.1-5.1-2.9v1.2l5.6 3.2 9-5.1L861 163v-1.2l-11.8-6.8"/>
    <path fill="#CCC" d="M834 164.2l-5.4-3.2-4.6 2.8 5.4 3.2 4.6-2.8"/>
    <path fill="#676767" d="M839.8 160.3l4.2-2.3-8.8 4.7-4.2 2.3 8.8-4.7"/>
    <path fill="#676767" d="M839.2 161l-9.1 5.1-5.1-2.9v1.2l5.6 3.2 9-5.1L851 169v-1.2l-11.8-6.8"/>
    <path fill="#CCC" d="M825 168.2l-5.4-3.2-4.6 2.8 5.4 3.2 4.6-2.8"/>
    <path fill="#676767" d="M829.8 165.3l4.2-2.3-8.8 4.7-4.2 2.3 8.8-4.7"/>
    <path fill="#A0A0A0" d="M841.7 172l4.3-2.4-11.7-6.6-4.3 2.4 11.7 6.6"/>
    <path fill="#676767" d="M830.2 165l-9.1 5.1-5.1-2.9v1.2l5.6 3.2 9-5.1L842 173v-1.2l-11.8-6.8"/>
    <path fill="#CCC" d="M817 173.2l-5.4-3.2-4.6 2.8 5.4 3.2 4.6-2.8"/>
    <path fill="#676767" d="M821.8 171.3l4.2-2.3-8.8 4.7-4.2 2.3 8.8-4.7"/>
    <path fill="#A0A0A0" d="M832.7 177l4.3-2.4-11.7-6.6-4.3 2.4 11.7 6.6"/>
    <path fill="#676767" d="M821.2 170l-9.1 5.1-5.1-2.9v1.2l5.6 3.2 9-5.1L833 178v-1.2l-11.8-6.8"/>
    <path d="M992 189.1l-88-51-14.5-.1-87.5 51.1v16.8l88 51.1h14.5l87.5-51.1v-8.4-8.4" fill="#545454"/>
    <path d="M992 188.8v8.4L904.5 248h-14.4l-88-50.8-.1-8.4 87.5-50.8h14.4l88 50.8" fill="#292C36"/>
    <path d="M992 179.1l-88-51-14.5-.1-87.5 51.1v16.8l88 51.1h14.5l87.5-51.1v-8.4-8.4" fill="#545454"/>
    <path d="M992 178.8v8.4L904.5 238h-14.4l-88-50.8-.1-8.4 87.5-50.8h14.4l88 50.8" fill="#596177"/>
    <path fill="#5975E8" d="M987 182l-90.3-53-89.7 53 90.3 53 89.7-53"/>
    <path d="M888.2 225.7V226.3l.2.3v.2l.2.2.1.2.2.2.1.2.3.2.1.2.3.2.2.1.5.4c3 1.7 8 1.7 11 0l.6-.4h.1l.3-.3.2-.2.2-.2.2-.2.1-.2.1-.2.2-.2v-.2l.2-.2v-.7c.2-1.2-.6-2.5-2.2-3.4-3-1.8-8-1.8-11 0-1.5.9-2.3 2-2.3 3.2v.2M821 180.6v.5l.1.2.1.2.1.2.2.2v.2l.3.2.1.2.2.2.2.2.3.2.2.2.5.3c3 1.8 8 1.8 11 0l.5-.3.2-.2.3-.2.4-.4.1-.2.2-.2.1-.2.1-.2.1-.2.1-.2v-.2l.1-.2v-.3c.2-1.2-.6-2.4-2.2-3.4-3-1.7-8-1.7-11 0-1.5.9-2.3 2-2.3 3.2v.2" fill="#FFF"/>
    <path d="M841.8 170.8h-.1v-.1h-.1l-.2-.2h-.2l-4.8-2.8c-6.6-3.8-12-.7-12.1 7v6.2l.2.2v.1l.2.2.1.2.5.3c.7.4 1.5.6 2.4.6.9 0 1.7-.2 2.4-.6l.4-.3.1-.1.2-.3.1-.1.1-.2v-3.4c0-5.3.5-5 4.5-2.7l2.5 1.6h.1c.2.2.5.3.7.3.3 0 .7-.1 1-.3a5.3 5.3 0 0 0 2.5-4.2c0-.7-.2-1.1-.5-1.4" fill="#A0A0A0"/>
    <path d="M844.2 168.4l1.4-.7h-.2l-.2.2h-.3l-.3.1-.2.1-.3.1-.3.1-.3.1c-.3.2-.7.3-1 .6a13 13 0 0 0-6 10.2c0 .4 0 .8.2 1.1l.3 2.2V181c-.1-4.6 3.2-10.3 7.2-12.6" fill="#D5E8FF"/>
    <path d="M888 193.3c-.2-.2-.2-.5-.3-.7l-.2-.3-.3-.5-.3-.3-.4-.4-.4-.1-.5-.2-.3-.1h-1l-.8.1-.3.1-1.2.6c-3.4 1.9-6.2 6.6-6.1 10.4v1.3l.2.4.2.7.2.3.3.5.3.3.4.3.3.2.6.2.3.1h1c.3 0 .6 0 .8-.2h.3a7 7 0 0 0 1.2-.6c3.4-2 6.1-6.6 6.1-10.5v-1.2l-.2-.4z" fill="#FFF"/>
    <path d="M874.5 206.5l-.3-.4c-.2-.1-.3-.4-.4-.6l-.3-.4a6 6 0 0 1-.2-.9l-.2-.4-.1-1.5c0-4.8 3.3-10.6 7.4-13l1.4-.6.5-.1.9-.2H884.4l.4.1.7.2.2.1-35.6-20.6c-1.4-.8-3.3-.7-5.3.5a16.4 16.4 0 0 0-7.4 13c0 2.3.8 4 2.1 4.7l35.7 20.6-.2-.1-.5-.4" fill="#FFF"/>
    <path d="M879.4 206.2h-1l-.5-.3-.3-.2-.4-.3-.3-.3-.3-.4-.2-.4-.3-.7v-.3l-.2-1.2a13 13 0 0 1 6.2-10.3l1.1-.5h.4l.7-.2h1.4l.5.3.4.1.4.4.3.2.3.5.2.4.2.6.1.4c0-.7-.2-1.4-.4-2-.3-1.7-1.1-2.9-2.3-3.4l-.6-.3h-.5l-.8-.1h-.5l-.9.2-.4.1-1.5.7a16 16 0 0 0-7.6 12.6l.1 1.6.2.4.2.9.3.4.4.6.3.3.5.4c1.1.7 2.6.9 4.2.3l2.1-.7h-.3l-.8.2h-.4z" fill="#D5E8FF"/>
    <path d="M886.7 198.6l-3.4-2-.2-.1h-.2l-.3-.1H882l-.3.2-.2.1a5.3 5.3 0 0 0-2.4 4.2v.5l.1.1.1.3.1.2.1.1.2.2h.1l.2.1 5 3.3c3.4 2 7 8.5 7 12.4v7l.1.3.1.1.2.2.1.1.5.3a5 5 0 0 0 2.4.6 5 5 0 0 0 2.4-.6l.4-.3h.1l.2-.3.2-.4v-5.8c.1-7.6-5.3-17-12-20.7" fill="#A0A0A0"/>
    <path d="M945.5 188.8v.7l.2.2v.2l.2.2.1.2.2.2.1.2.3.2.1.2.3.2.2.2.5.3c3 1.8 8 1.8 11 0l.6-.3.1-.2.3-.2.2-.2.2-.2.2-.2.1-.2.3-.4v-.2l.2-.2v-.7c.2-1.2-.6-2.4-2.2-3.4-3-1.7-8-1.7-11 0-1.5.9-2.3 2-2.3 3.2v.2M877.5 145.4v.4l.1.2.1.2.1.2.2.3v.2l.3.2v.2l.3.2.2.1.3.3.2.1.5.4c3 1.7 8 1.7 11 0l.5-.4.2-.1.3-.3.4-.3.1-.2.2-.2.1-.2.1-.2.1-.2.1-.3v-.2l.1-.2v-.2c.1-1.2-.6-2.5-2.2-3.4-3-1.8-8-1.8-11 0-1.6.9-2.3 2-2.3 3.2v.2" fill="#FFF"/>
    <path d="M899 134.7v-.1h-.1l-.2-.1h-.2l-4.8-2.8c-6.6-3.9-12-.8-12.1 6.9v6.2l.2.2v.2l.2.2.2.1.4.3a5 5 0 0 0 2.4.6c.9 0 1.7-.2 2.4-.6l.4-.3.1-.1.2-.2.1-.2.1-.2v-3.4c0-5.2.5-4.9 4.5-2.6l2.5 1.5.1.1.7.2c.3 0 .7 0 1-.3a5.3 5.3 0 0 0 2.5-4.2c0-.6-.2-1-.5-1.4" fill="#A0A0A0"/>
    <path d="M901.5 132.3l1.4-.7h-.1l-.1.1h-.2l-.2.2H902l-.2.1h-.2l-.2.2h-.3v.1h-.3l-1 .6a13 13 0 0 0-6 10.2l.2 1.2c0 .7.2 1.4.3 2V145c0-4.6 3.2-10.3 7.2-12.6" fill="#D5E8FF"/>
    <path d="M945.2 158a5 5 0 0 0-.2-.6l-.2-.4-.3-.5-.3-.3-.4-.3-.3-.2-.6-.2H941.6a5 5 0 0 0-.8 0l-.3.2-1.2.5c-3.4 2-6.1 6.7-6.1 10.5v1.3l.2.3.2.7.2.4.3.5.3.2.4.4.3.2.6.2h1.3l.9-.1h.2l1.2-.6c3.4-2 6.2-6.7 6.1-10.5v-1.3l-.2-.3z" fill="#FFF"/>
    <path d="M931.8 170.4l-.3-.3-.4-.6-.3-.5-.2-.8-.2-.5-.1-1.5c0-4.7 3.3-10.5 7.4-13l1.4-.6h.5l.9-.3H941.7l.4.1.7.3h.2l-35.6-20.6c-1.4-.7-3.2-.6-5.3.6a16.5 16.5 0 0 0-7.4 12.9c0 2.3.8 4 2.2 4.8l35.6 20.6-.2-.2-.5-.4" fill="#FFF"/>
    <path d="M937.1 170.2h-1l-.4-.2-.5-.1-.3-.2-.4-.4-.3-.2-.3-.5-.2-.3-.2-.7-.1-.4-.2-1.2a13 13 0 0 1 6.2-10.2l1.2-.5.3-.1.8-.2h1l.3.1.5.2.4.2.4.3.3.3.3.5.2.3.2.7.1.3c0-.6-.2-1.3-.4-2-.3-1.7-1.1-2.8-2.3-3.4l-.6-.2-.5-.1a5 5 0 0 0-.8 0h-.4l-1 .1-.4.2-1.5.6a16 16 0 0 0-7.6 12.7l.1 1.5.2.4.2.9.3.4.4.6.3.3.5.5c1.1.7 2.6.8 4.2.2l2.1-.7h-.3c-.2.2-.5.2-.8.3" fill="#D5E8FF"/>
    <path d="M944 162.5l-3.4-2h-.2l-.2-.1H939.3l-.3.2h-.1a5.3 5.3 0 0 0-2.5 4.2v.5l.1.2.1.3h.1l.1.3.2.1h.1l.2.2 5 3.2c3.4 2 7 8.5 7 12.4V189.1l.1.2.1.1.3.4.5.3a5 5 0 0 0 2.4.6 5 5 0 0 0 2.4-.6l.4-.3.1-.1.2-.3.1-.1.1-.2v-5.9c.1-7.6-5.3-16.9-12-20.7" fill="#A0A0A0"/>
    <path d="M850.5 163.4v.5l.1.1.1.3.1.2.1.2.2.2.1.2.2.2.2.2.2.2.3.2.1.1.6.4c3 1.7 8 1.7 11 0l.5-.4h.2l.3-.3.1-.2.3-.2v-.2l.3-.2v-.2l.2-.2.1-.2.1-.2v-.2l.1-.3v-.2c.1-1.2-.6-2.4-2.3-3.4-3-1.8-8-1.8-11 0-1.5.9-2.2 2-2.2 3.2v.2M918.4 207.7v.2l.1.2v.2l.2.2v.2l.2.3.1.2.2.2.1.2.3.2.1.1.3.3.2.1.5.3c3 1.8 8 1.8 11 0l.6-.3.1-.1.3-.3.2-.1.2-.2.1-.2.2-.2.1-.2.2-.3v-.1l.1-.3.1-.2v-.4c.2-1.2-.6-2.5-2.2-3.4-3-1.8-8-1.8-11 0-1.5.8-2.3 2-2.3 3.1v.3" fill="#FFF"/>
    <path d="M872.9 152.8l-.1-.1-.1-.1h-.2l-.2-.1-4.8-2.8c-6.6-3.9-12-.8-12 7l-.1 5.6v.5l.2.2v.2l.2.2.2.1.4.3c.7.4 1.5.6 2.4.6.9 0 1.7-.2 2.4-.6l.4-.3h.2l.2-.3v-.1l.1-.3v-3.3c0-5.3.5-5 4.5-2.7l2.5 1.6h.1c.2.2.5.3.7.3.3 0 .7-.1 1-.4a5.3 5.3 0 0 0 2.5-4.2c0-.6-.2-1-.5-1.3" fill="#A0A0A0"/>
    <path d="M875.3 151.1l1.4-.6h-.2l-.2.1-.2.1h-.1l-.4.2h-.1l-.3.1-.3.1-.3.1-1 .5a13 13 0 0 0-6 10.2l.2 1.2.3 2.1v-1.4c0-4.7 3.2-10.3 7.2-12.7" fill="#2267B9"/>
    <path d="M918.3 176.4l-.1-.3-.2-.7-.2-.4-.3-.5-.3-.2-.4-.4-.4-.2-.5-.1-.4-.1h-1l-.7.1-.4.1-1.1.5c-3.4 2-6.2 6.7-6.2 10.5 0 .5 0 1 .2 1.3v.4l.3.7.2.3.3.5.3.3.4.3.3.2.5.2h.4l.6.1h.4c.3 0 .6 0 .8-.2h.3a7 7 0 0 0 1.2-.6c3.4-2 6.1-6.6 6.1-10.5v-1.3" fill="#FFF"/>
    <path d="M904.4 188.1l-.3-.6-.3-.4a6 6 0 0 1-.2-.9l-.2-.4-.1-1.6c0-4.7 3.3-10.5 7.4-12.9l1.4-.6.5-.2.9-.2H914.7l.4.2.6.2.3.1-35.6-20.6c-1.4-.8-3.3-.7-5.3.5a16.4 16.4 0 0 0-7.4 12.9c0 2.4.8 4 2.1 4.8l35.7 20.6-.2-.1-.5-.5-.4-.3z" fill="#FFF"/>
    <path d="M910 189H909.2l-.4-.1-.5-.2-.3-.2-.5-.3-.2-.3-.3-.5-.2-.3-.3-.7v-.3l-.2-1.3a13 13 0 0 1 6.2-10.2 7 7 0 0 1 1.1-.5h.4l.7-.2h1.4l.5.2.4.2.4.4.3.2.3.5.2.3.2.7.1.4-.4-2.1c-.3-1.7-1.1-2.8-2.3-3.3l-.6-.3h-.5l-.8-.1h-.5l-.9.2-.4.1-1.5.7a16 16 0 0 0-7.6 12.6l.1 1.6.1.4.3.8.3.5c0 .2.2.4.4.6l.3.3.5.4c1.1.7 2.5.9 4.2.3l2.1-.7h-.3l-.8.2" fill="#D5E8FF"/>
    <path d="M917.8 180.5l-3.4-2h-.2l-.2-.1H913l-.3.2h-.1a5.3 5.3 0 0 0-2.5 4.2v.6l.1.1.1.3.1.1.1.2.2.1.1.1.2.1 5 3.2c3.4 2 7 8.6 7 12.5V207l.1.2.1.2.2.2.1.1.5.3a5 5 0 0 0 2.4.6 5 5 0 0 0 2.4-.6l.4-.3.1-.1.2-.2.1-.2.1-.2v-5.8c.1-7.7-5.3-17-12-20.8" fill="#A0A0A0"/>
    <g>
      <path fill="#6A6A6A" d="M508 194.5l-15 7.5v-15z"/>
      <path d="M493 194.5h-34.5" stroke="#6A6A6A" stroke-width="3" stroke-linecap="square"/>
    </g>
    <g>
      <path fill="#6A6A6A" d="M790 194.5l-15 7.5v-15z"/>
      <path d="M775 194.5h-34.5" stroke="#6A6A6A" stroke-width="3" stroke-linecap="square"/>
    </g>
    <g>
      <path fill="#6A6A6A" d="M1054 194.5l-15 7.5v-15z"/>
      <path d="M1039 194.5h-34.5" stroke="#6A6A6A" stroke-width="3" stroke-linecap="square"/>
    </g>
    <g>
      <path fill="#6A6A6A" d="M1340 199.5l-15 7.5v-15z"/>
      <path d="M1325 199.5h-34.5" stroke="#6A6A6A" stroke-width="3" stroke-linecap="square"/>
    </g>
    <path d="M872.2 96.7h-2.7l-4.8-12.2v12.2H861V78.1h4.7l5.1 13.1 5.1-13.1h4.7v18.6h-3.8V84.5l-4.6 12.2zm24.7-6.8c0 4.2-2.8 7.1-6.8 7.1s-6.9-3-6.9-7c0-4.2 2.8-7.2 6.9-7.2 4 0 6.8 3 6.8 7.1zm-3.8 0c0-2.2-1.1-3.9-3-3.9-2 0-3 1.7-3 4 0 2.2 1 3.8 3 3.8 1.9 0 3-1.6 3-3.9zm15.2 6.8v-1.1c-.6.7-2 1.4-3.5 1.4-4 0-6.3-3.2-6.3-7 0-4 2.3-7.2 6.3-7.2 1.5 0 2.9.7 3.5 1.5V77h3.9v19.7h-3.9zm0-4.5v-4.5a3 3 0 0 0-2.6-1.6c-2.1 0-3.4 1.7-3.4 3.8 0 2.2 1.3 3.8 3.4 3.8 1.1 0 2.2-.6 2.6-1.5zm15.7 0h3.6c-.5 3-2.7 4.8-6.2 4.8-4 0-6.7-2.9-6.7-7 0-4.2 2.8-7.2 6.7-7.2 4 0 6.3 2.8 6.3 6.8v1.1h-9.3c.1 2 1.3 3.3 3 3.3 1.3 0 2.3-.6 2.6-1.7zm-2.6-6.3c-1.5 0-2.6.9-3 2.6h5.5c0-1.5-1-2.6-2.5-2.6zM934 77v19.7h-3.9V77h3.9z" fill="#3D4251" fill-rule="nonzero"/>
  </g>
</svg>
