<svg width="1303px" height="381px" viewBox="0 0 1303 381" xmlns="http://www.w3.org/2000/svg">
  <defs>
    <linearGradient x1="94.0900964%" y1="47.2437979%" x2="8.11372823%" y2="51.9218709%" id="a">
      <stop stop-color="#A3184B" offset="0%"/>
      <stop stop-color="#FF2575" offset="100%"/>
    </linearGradient>
    <linearGradient x1="94.0900964%" y1="47.2437979%" x2="8.11372823%" y2="51.9218709%" id="b">
      <stop stop-color="#613F89" offset="0%"/>
      <stop stop-color="#9160CD" offset="100%"/>
    </linearGradient>
  </defs>
  <g fill="none" fill-rule="evenodd">
    <rect fill="#DFD9D9" x="1030" y="107" width="248" height="202" rx="10"/>
    <g transform="translate(1058 130)">
      <rect stroke="#494848" stroke-width="4" fill="#FFF" x="2" y="2" width="197" height="47" rx="23.5"/>
      <path d="M50.2 29.6h4c.6 1.6 2 2.4 3.8 2.4 2 0 3.2-.8 3.2-2.4 0-1.1-.6-1.7-2.3-2.1l-3.4-.8c-2.7-.6-4.8-2-4.8-5.2 0-3.4 2.8-5.8 6.8-5.8 4.4 0 6.9 2.3 7.5 5.5h-4c-.4-1.3-1.5-2.3-3.5-2.3-1.8 0-3 .9-3 2.2 0 1.1.8 1.8 2.2 2.1l3.4.8c3.1.7 5 2.5 5 5.4 0 3.7-3 6-7 6-4.3 0-7.3-2.2-8-5.8zM67 25.5c0-5.8 3.8-9.8 8.8-9.8 4.5 0 7.3 2.6 8 6.4h-4c-.6-1.7-1.8-3-4-3-3 0-4.8 2.8-4.8 6.4 0 3.6 1.8 6.3 4.8 6.3 2.2 0 3.4-1.2 4-3h4c-.7 3.9-3.5 6.5-8 6.5-5 0-8.8-4-8.8-9.8zm36.5 0c0 5.7-3.7 9.8-9 9.8s-9-4.1-9-9.8c0-5.7 3.7-9.8 9-9.8s9 4 9 9.8zm-4 0c0-3.7-2-6.3-5-6.3s-5 2.6-5 6.3c0 3.7 2 6.3 5 6.3s5-2.6 5-6.3zm12.8 2.4h-2V35h-4V16h7.9c4 0 6.6 2.1 6.6 6 0 3-1.7 5-4.3 5.6l5 7.4H117l-4.7-7.1zm-2-8.6v5.3h3.6c2 0 3-1 3-2.6s-1-2.7-3-2.7h-3.7zm13.5-3.3h12.9v3.4h-9v4.2h8.2V27h-8.2v4.5h9V35h-13V16zm14.7 13.6h4c.6 1.6 2 2.4 3.8 2.4 2 0 3.2-.8 3.2-2.4 0-1.1-.7-1.7-2.3-2.1l-3.4-.8c-2.7-.6-4.8-2-4.8-5.2 0-3.4 2.8-5.8 6.8-5.8 4.3 0 6.9 2.3 7.5 5.5h-4c-.4-1.3-1.5-2.3-3.5-2.3-1.8 0-3 .9-3 2.2 0 1.1.7 1.8 2.2 2.1l3.4.8c3.1.7 5 2.5 5 5.4 0 3.7-3 6-7 6-4.3 0-7.3-2.2-8-5.8z" fill="#3D4251" fill-rule="nonzero"/>
    </g>
    <g transform="translate(1058 234)">
      <rect stroke="#494848" stroke-width="4" fill="#FFF" x="2" y="2" width="197" height="47" rx="23.5"/>
      <path d="M79.6 28.2H76V25h7.5v1.7c0 5.3-3.5 8.6-8.3 8.6-5.3 0-9.1-4-9.1-9.8 0-5.8 3.9-9.8 9-9.8 4.6 0 7.4 2.6 8.1 6.4h-4c-.7-1.8-1.9-3-4-3-3.2 0-5.1 2.7-5.1 6.4s2 6.3 5.1 6.3c2.5 0 4-1.4 4.4-3.6zm23.7-2.7c0 5.7-3.7 9.8-9 9.8s-9-4.1-9-9.8c0-5.7 3.7-9.8 9-9.8s9 4 9 9.8zm-4 0c0-3.7-2-6.3-5-6.3s-5 2.6-5 6.3c0 3.7 2 6.3 5 6.3s5-2.6 5-6.3zm6.8 9.5V16h4v15.5h8.8V35h-12.8zm19.6-3.5h2.7c3.6 0 5.6-2.3 5.6-6s-2-6-5.6-6h-2.7v12zm-4 3.5V16h6.8c5.8 0 9.4 3.7 9.4 9.5s-3.6 9.5-9.4 9.5h-6.7z" fill="#3D4251" fill-rule="nonzero"/>
    </g>
    <g transform="translate(710 236)">
      <rect fill="url(#a)" width="201" height="51" rx="25.5"/>
      <path d="M48.5 28.2h-3.7V25h7.5v1.7c0 5.3-3.4 8.6-8.2 8.6-5.3 0-9.2-4-9.2-9.8 0-5.8 3.9-9.8 9-9.8 4.7 0 7.4 2.6 8.1 6.4h-4c-.7-1.8-1.8-3-4-3-3.2 0-5 2.7-5 6.4s1.9 6.3 5 6.3c2.5 0 4-1.4 4.5-3.6zm12.6-.3H59V35h-4V16h8c4 0 6.6 2.1 6.6 6 0 3-1.7 5-4.4 5.6l5 7.4h-4.4L61 27.9zM59 19.3v5.3h3.7c2 0 3-1 3-2.6s-1-2.7-3-2.7H59zM78.4 16h4l7.3 19h-4l-1.8-4.6h-7.1L75.1 35h-4l7.3-19zm2 4.7L78 27.1h4.7l-2.3-6.4zm15.5 10.8h2.6c3.7 0 5.6-2.3 5.6-6s-2-6-5.6-6H96v12zm-4 3.5V16h6.8c5.7 0 9.4 3.7 9.4 9.5s-3.7 9.5-9.4 9.5H92zm22.9-19v19h-4V16h4zm3.6 0h13v3.4h-9v4.2h8.1V27h-8.2v4.5h9V35h-12.9V16zm32 0v19h-3.2l-9-12.7V35h-3.8V16h3.7l8.4 12V16h3.9zm2.6 3.4V16h16.2v3.4h-6.1V35h-4V19.4H153z" fill="#FFF" fill-rule="nonzero"/>
    </g>
    <g transform="translate(370 236)">
      <rect fill="url(#b)" width="201" height="51" rx="25.5"/>
      <path d="M48.5 28.2h-3.7V25h7.5v1.7c0 5.3-3.4 8.6-8.2 8.6-5.3 0-9.2-4-9.2-9.8 0-5.8 3.9-9.8 9-9.8 4.7 0 7.4 2.6 8.1 6.4h-4c-.7-1.8-1.8-3-4-3-3.2 0-5 2.7-5 6.4s1.9 6.3 5 6.3c2.5 0 4-1.4 4.5-3.6zm12.6-.3H59V35h-4V16h8c4 0 6.6 2.1 6.6 6 0 3-1.7 5-4.4 5.6l5 7.4h-4.4L61 27.9zM59 19.3v5.3h3.7c2 0 3-1 3-2.6s-1-2.7-3-2.7H59zM78.4 16h4l7.3 19h-4l-1.8-4.6h-7.1L75.1 35h-4l7.3-19zm2 4.7L78 27.1h4.7l-2.3-6.4zm15.5 10.8h2.6c3.7 0 5.6-2.3 5.6-6s-2-6-5.6-6H96v12zm-4 3.5V16h6.8c5.7 0 9.4 3.7 9.4 9.5s-3.7 9.5-9.4 9.5H92zm22.9-19v19h-4V16h4zm3.6 0h13v3.4h-9v4.2h8.1V27h-8.2v4.5h9V35h-12.9V16zm32 0v19h-3.2l-9-12.7V35h-3.8V16h3.7l8.4 12V16h3.9zm2.6 3.4V16h16.2v3.4h-6.1V35h-4V19.4H153z" fill="#FFF" fill-rule="nonzero"/>
    </g>
    <rect fill="#9160CD" x="347" y="78" width="248" height="129" rx="10"/>
    <rect fill="#FF2575" x="687" y="78" width="248" height="129" rx="10"/>
    <path fill="#6A6A6A" d="M325 138.5l-15 7.5v-15z"/>
    <path d="M310 138.5h-34.5" stroke="#6A6A6A" stroke-width="3" stroke-linecap="square"/>
    <path fill="#6A6A6A" d="M660 143.5l-15 7.5v-15z"/>
    <path d="M645 143.5h-34.5" stroke="#6A6A6A" stroke-width="3" stroke-linecap="square"/>
    <path fill="#6A6A6A" d="M1012 143.5l-15 7.5v-15z"/>
    <path d="M997 143.5h-34.5" stroke="#6A6A6A" stroke-width="3" stroke-linecap="square"/>
    <path fill="#6A6A6A" d="M610 261.5l15-7.5v15z"/>
    <path d="M625 261.5h34.5" stroke="#6A6A6A" stroke-width="3" stroke-linecap="square"/>
    <path fill="#6A6A6A" d="M963 261.5l15-7.5v15z"/>
    <path d="M978 261.5h34.5" stroke="#6A6A6A" stroke-width="3" stroke-linecap="square"/>
    <path fill="#6A6A6A" d="M275 261.5l15-7.5v15z"/>
    <path d="M290 261.5h34.5" stroke="#6A6A6A" stroke-width="3" stroke-linecap="square"/>
    <path d="M62.6 276.4h-3.8v6.6h-4v-19h7.8c4 0 6.7 2.1 6.7 6.2 0 4-2.6 6.2-6.7 6.2zm2.8-6.2c0-1.7-1-2.9-3-2.9h-3.6v5.7h3.6c2 0 3-1.2 3-2.8zm14.8-1.1v3.8c-.5-.3-1.2-.4-1.9-.4-1.3 0-2.3.6-2.6 2v8.5h-3.9v-13.9h3.9v1.4c.6-1 1.7-1.7 3-1.7.7 0 1.3.2 1.5.3zm11 9.4h3.5c-.5 3-2.7 4.8-6.1 4.8-4 0-6.8-3-6.8-7.2s2.8-7.3 6.7-7.3c4 0 6.3 2.9 6.3 7v1h-9.2c0 2.2 1.3 3.4 3 3.4 1.3 0 2.2-.5 2.5-1.7zm-2.7-6.5c-1.5 0-2.5.9-2.8 2.6H91c0-1.5-.9-2.6-2.5-2.6zm8.3 4.6v-3.4h7.4v3.4h-7.4zm11.1 2.2v-6.6h-2.1v-3h2.1v-3.8h3.8v3.7h3v3.1h-3v6.1c0 1.1.6 1.6 1.6 1.6.6 0 1.2-.2 1.7-.5v3.4c-.5.3-1.5.5-2.5.5-2.8 0-4.6-1.4-4.6-4.5zm18.3-9.7v3.8c-.6-.3-1.2-.4-2-.4-1.3 0-2.3.6-2.6 2v8.5h-3.8v-13.9h3.8v1.4c.6-1 1.7-1.7 3.1-1.7.7 0 1.3.2 1.5.3zM140 283h-3.7v-.7c-.4.4-1.8 1-3.3 1-2.8 0-5.2-1.7-5.2-4.5 0-2.7 2.4-4.5 5.4-4.5 1.2 0 2.6.4 3.1.8v-1c0-1.2-.7-2.1-2.2-2.1-1.1 0-1.8.5-2 1.3h-3.7c.4-2.5 2.6-4.5 5.8-4.5 3.7 0 5.8 2 5.8 5.4v8.8zm-3.7-3.8v-1c-.3-.7-1.4-1.2-2.5-1.2-1.2 0-2.4.5-2.4 1.7s1.2 1.7 2.4 1.7c1.1 0 2.2-.4 2.5-1.2zm10.7-10V283h-3.8v-13.9h3.8zm.3-4c0 1.2-1 2.1-2.2 2.1-1.3 0-2.3-.9-2.3-2.2 0-1.2 1-2.2 2.3-2.2 1.2 0 2.2 1 2.2 2.2zm3 17.8v-13.9h3.9v1.3a5 5 0 0 1 3.7-1.6c3.1 0 5 2 5 5.1v9.1h-4v-8.2c0-1.5-.7-2.5-2.2-2.5-1.2 0-2.2.7-2.5 2v8.7h-3.8zm24.1-4.5h3.6c-.5 3-2.7 4.8-6.1 4.8-4 0-6.8-3-6.8-7.2s2.8-7.3 6.7-7.3c4 0 6.3 2.9 6.3 7v1h-9.2c0 2.2 1.3 3.4 3 3.4 1.3 0 2.2-.5 2.5-1.7zm-2.6-6.5c-1.5 0-2.5.9-2.9 2.6h5.4c0-1.5-.9-2.6-2.5-2.6zm17.6 11v-1.1c-.6.7-2 1.4-3.4 1.4-4 0-6.3-3.2-6.3-7.2s2.2-7.3 6.3-7.3c1.5 0 2.8.7 3.4 1.5v-7.4h4V283h-4zm0-4.6v-4.6a3 3 0 0 0-2.6-1.6c-2 0-3.3 1.7-3.3 3.9s1.3 3.9 3.3 3.9c1.2 0 2.2-.7 2.6-1.6zM51.6 309.8v-6.6h-2.1v-3h2v-3.8h3.9v3.7h3v3.1h-3v6.1c0 1.1.6 1.6 1.6 1.6.6 0 1.2-.2 1.7-.5v3.4c-.6.3-1.5.5-2.5.5-2.8 0-4.6-1.4-4.6-4.5zm18.2-9.7v3.8c-.5-.3-1.2-.4-1.9-.4-1.3 0-2.3.6-2.6 2v8.5h-3.9v-13.9h3.9v1.4c.6-1 1.7-1.7 3-1.7.7 0 1.3.2 1.5.3zM83.7 314H80v-.7c-.5.4-1.8 1-3.4 1-2.8 0-5.1-1.7-5.1-4.5 0-2.7 2.3-4.5 5.3-4.5 1.3 0 2.7.4 3.2.8v-1c0-1.2-.7-2.1-2.3-2.1-1 0-1.7.5-2 1.3H72c.4-2.5 2.7-4.5 5.9-4.5 3.7 0 5.8 2 5.8 5.4v8.8zm-3.7-3.8v-1c-.3-.7-1.4-1.2-2.5-1.2-1.2 0-2.4.5-2.4 1.7s1.2 1.7 2.4 1.7c1.1 0 2.2-.4 2.5-1.2zm6.8 3.8v-13.9h3.9v1.3a5 5 0 0 1 3.7-1.6c3.1 0 4.9 2 4.9 5.1v9.1h-3.9v-8.2c0-1.5-.7-2.5-2.2-2.5-1.2 0-2.2.7-2.5 2v8.7h-3.9zm14.8-4.1h3.8c.3 1 1.2 1.5 2.3 1.5 1.2 0 2-.5 2-1.4 0-.6-.5-.9-1.4-1.1l-2.8-.7c-2.1-.5-3.6-1.5-3.6-3.9 0-2.7 2.4-4.5 5.5-4.5 3.5 0 5.4 1.7 6 4.3h-3.8c-.2-.8-.9-1.4-2.1-1.4-1 0-1.9.5-1.9 1.3 0 .6.4 1 1.3 1.1l2.8.7c2.5.6 3.7 2 3.7 4 0 2.8-2.4 4.5-5.6 4.5-3.4 0-5.8-1.6-6.2-4.4zm22.6-16v3.3c-.4-.3-1-.4-1.4-.4-1.2 0-1.9.7-1.9 2v1.3h2.9v3.1h-2.9V314h-3.8v-10.8H115v-3h2.2v-1.7c0-3.1 2-5 5-5 .8 0 1.5.2 2 .4zm14.6 13.2c0 4.2-2.7 7.2-6.7 7.2s-6.8-3-6.8-7.2c0-4.3 2.7-7.3 6.8-7.3 4 0 6.7 3 6.7 7.3zm-3.8 0c0-2.3-1-4-3-4-1.9 0-3 1.7-3 4s1.1 4 3 4c2 0 3-1.7 3-4zm14.7-7v3.8c-.5-.3-1.2-.4-2-.4-1.2 0-2.3.6-2.6 2v8.5h-3.8v-13.9h3.8v1.4c.6-1 1.8-1.7 3.1-1.7.7 0 1.3.2 1.5.3zm13.5 1.5c1-1 2.3-1.8 4.2-1.8 2.9 0 4.6 2 4.6 5.1v9.1H168v-8.2c0-1.5-.6-2.5-2-2.5-1 0-1.8.6-2 1.8v8.9h-4v-8.2c0-1.5-.6-2.5-2-2.5-.9 0-1.8.6-2 1.8v8.9h-4v-13.9h4v1.2c.6-.9 1.9-1.5 3.4-1.5 1.7 0 3 .8 3.7 1.8zm20.4 7.9h3.6c-.5 3-2.7 4.8-6.2 4.8-4 0-6.7-3-6.7-7.2s2.8-7.3 6.7-7.3c4 0 6.3 2.9 6.3 7v1H178c.2 2.2 1.3 3.4 3 3.4 1.3 0 2.3-.5 2.6-1.7zM181 303c-1.5 0-2.5.9-2.9 2.6h5.4c0-1.5-1-2.6-2.5-2.6zm17.1-3v4c-.5-.4-1.2-.5-1.9-.5-1.3 0-2.4.6-2.6 2v8.5h-3.9v-13.9h3.9v1.4c.6-1 1.7-1.7 3-1.7.7 0 1.3.2 1.5.3zm-99.3 32.6c.8-1 2.2-1.8 4.1-1.8 2.9 0 4.6 2 4.6 5.1v9.1h-3.9v-8.2c0-1.5-.6-2.5-2-2.5-1 0-1.8.6-2 1.8v8.9h-4v-8.2c0-1.5-.6-2.5-1.9-2.5-1 0-2 .6-2.2 1.8v8.9h-3.8v-13.9h3.8v1.2c.7-.9 2-1.5 3.5-1.5 1.7 0 3 .8 3.8 1.8zm24.6 5.5c0 4.2-2.8 7.2-6.8 7.2s-6.8-3-6.8-7.2c0-4.3 2.8-7.3 6.8-7.3s6.8 3 6.8 7.3zm-3.8 0c0-2.3-1-4-3-4s-3 1.7-3 4 1 4 3 4 3-1.7 3-4zm15.1 6.9v-1.1c-.6.7-2 1.4-3.4 1.4-4 0-6.3-3.2-6.3-7.2s2.2-7.3 6.3-7.3c1.5 0 2.8.7 3.4 1.5v-7.4h4V345h-4zm0-4.6v-4.6a3 3 0 0 0-2.6-1.6c-2 0-3.3 1.7-3.3 3.9s1.3 3.9 3.3 3.9c1.2 0 2.2-.7 2.6-1.6zm15.7 0h3.5c-.5 3-2.6 5-6.1 5-4 0-6.7-3-6.7-7.3 0-4.2 2.8-7.3 6.6-7.3 4 0 6.3 2.9 6.3 7v1h-9.2c.1 2.2 1.3 3.4 3 3.4 1.3 0 2.3-.5 2.6-1.7zm-2.6-6.4c-1.5 0-2.6.9-3 2.6h5.4c0-1.5-.9-2.6-2.4-2.6zm12.5-9.1V345h-3.8v-20.1h3.8z" fill="#3D4251" fill-rule="nonzero"/>
    <path d="M387 123.4V120h16.2v3.4H397V139h-4v-15.6h-6zm31.3 8.7c0 4.2-2.7 7.2-6.8 7.2-4 0-6.7-3-6.7-7.2 0-4.3 2.7-7.3 6.7-7.3s6.8 3 6.8 7.3zm-3.8 0c0-2.3-1-4-3-4-1.9 0-3 1.7-3 4s1.1 4 3 4c2 0 3-1.7 3-4zm15.3 6.9l-4-5.6-1.2 1.2v4.4h-3.8v-20.2h3.8v11.5l4.8-5.2h4.7l-5.6 6 5.9 7.9h-4.6zm14.9-4.5h3.5c-.4 3-2.6 4.8-6 4.8-4.1 0-6.8-3-6.8-7.2s2.8-7.3 6.6-7.3c4.1 0 6.3 2.9 6.3 7v1h-9.2c.1 2.2 1.3 3.4 3 3.4 1.3 0 2.3-.5 2.6-1.7zM442 128c-1.5 0-2.6.9-3 2.6h5.5c0-1.5-1-2.6-2.5-2.6zm8.7 11v-13.9h3.8v1.3a5 5 0 0 1 3.8-1.6c3 0 4.9 2 4.9 5.1v9.1h-3.9v-8.2c0-1.5-.7-2.5-2.3-2.5-1.1 0-2.2.7-2.5 2v8.7h-3.8zm32 0h-3.9l-7-19h4l5 13.7 5-13.7h4l-7.1 19zm17.7-4.5h3.5c-.4 3-2.6 4.8-6 4.8-4.1 0-6.8-3-6.8-7.2s2.8-7.3 6.6-7.3c4.1 0 6.3 2.9 6.3 7v1H495c.1 2.2 1.3 3.4 3 3.4 1.3 0 2.3-.5 2.6-1.7zm-2.6-6.5c-1.5 0-2.6.9-3 2.6h5.5c0-1.5-1-2.6-2.5-2.6zm7.8 4c0-4.2 2.7-7.2 6.7-7.2 3.5 0 5.7 2 6 5h-3.7c-.2-1-1-1.7-2.3-1.7-1.8 0-2.9 1.6-2.9 4 0 2.3 1.1 4 2.9 4 1.2 0 2-.7 2.3-1.8h3.8c-.4 3-2.6 5-6.1 5-4 0-6.7-3-6.7-7.2zm16 2.8v-6.6h-2.2v-3h2.2v-3.8h3.8v3.7h3v3.1h-3v6.1c0 1.1.6 1.6 1.5 1.6.6 0 1.3-.2 1.7-.5v3.4c-.5.3-1.4.5-2.5.5-2.8 0-4.5-1.4-4.5-4.5zm22.5-2.7c0 4.2-2.7 7.2-6.8 7.2-4 0-6.8-3-6.8-7.2 0-4.3 2.8-7.3 6.8-7.3s6.8 3 6.8 7.3zm-3.8 0c0-2.3-1-4-3-4-1.9 0-3 1.7-3 4s1.1 4 3 4c2 0 3-1.7 3-4zm14.7-7v3.8c-.6-.3-1.2-.4-2-.4-1.3 0-2.3.6-2.6 2v8.5h-3.8v-13.9h3.8v1.4c.6-1 1.8-1.7 3.1-1.7.7 0 1.3.2 1.5.3zM421.6 151h12.9v3.4h-9v4.2h8.1v3.4h-8.1v4.5h9v3.5h-13v-19zm15.8 19v-13.9h3.8v1.3a5 5 0 0 1 3.8-1.6c3 0 4.9 2 4.9 5.1v9.1H446v-8.2c0-1.5-.7-2.5-2.2-2.5-1.2 0-2.3.7-2.6 2v8.7h-3.8zm14.8-7c0-4.2 2.7-7.2 6.6-7.2 3.5 0 5.7 2 6.1 5h-3.8c-.2-1-1-1.7-2.3-1.7-1.7 0-2.8 1.6-2.8 4 0 2.3 1 4 2.8 4 1.3 0 2.1-.7 2.3-1.8h3.8c-.4 3-2.6 5-6 5-4 0-6.7-3-6.7-7.2zm27.8 0c0 4.3-2.8 7.3-6.8 7.3s-6.8-3-6.8-7.2c0-4.3 2.8-7.3 6.8-7.3s6.8 3 6.8 7.3zm-3.8 0c0-2.2-1-4-3-4s-3 1.8-3 4c0 2.4 1 4 3 4s3-1.6 3-4zm15.1 7v-1.1c-.6.7-2 1.4-3.4 1.4-4 0-6.3-3.2-6.3-7.2s2.2-7.3 6.3-7.3c1.5 0 2.8.7 3.4 1.5v-7.5h4V170h-4zm0-4.7v-4.5a3 3 0 0 0-2.6-1.6c-2 0-3.3 1.7-3.3 3.9s1.3 3.9 3.3 3.9c1.2 0 2.2-.7 2.6-1.7zm15.7.2h3.5c-.5 3-2.6 4.8-6.1 4.8-4 0-6.7-3-6.7-7.2s2.8-7.3 6.6-7.3c4 0 6.3 2.9 6.3 7v1h-9.2c.1 2.2 1.3 3.4 3 3.4 1.3 0 2.3-.5 2.6-1.7zm-2.6-6.5c-1.5 0-2.6.9-3 2.6h5.4c0-1.5-.9-2.6-2.4-2.6zm17-3v4c-.5-.4-1.1-.5-1.9-.5-1.3 0-2.3.6-2.6 2v8.5h-3.8v-13.9h3.8v1.4c.6-1 1.7-1.7 3.1-1.7.7 0 1.3.2 1.5.3zM721 132.4V129h16.2v3.4h-6.1V148h-4v-15.6H721zm27 11h3.7c-.5 3-2.7 5-6.2 5-4 0-6.7-3-6.7-7.3 0-4.2 2.8-7.3 6.7-7.3 4 0 6.2 2.9 6.2 7v1h-9.2c.1 2.2 1.3 3.4 3 3.4 1.3 0 2.3-.5 2.6-1.7zm-2.5-6.4c-1.5 0-2.6.9-2.9 2.6h5.4c0-1.5-1-2.6-2.5-2.6zm21.2-2.9l-4.7 6.7 5 7.2h-4.2l-3-4.3-3 4.3h-4l5-7-4.7-6.9h4.2l2.7 4 2.7-4h4zm3.1 9.7v-6.6h-2v-3h2v-3.8h3.8v3.7h3v3.1h-3v6.1c0 1.1.6 1.6 1.6 1.6.6 0 1.3-.2 1.7-.5v3.4c-.5.3-1.5.5-2.5.5-2.8 0-4.6-1.4-4.6-4.5zm15.7-5.3c0-5.8 3.8-9.8 8.8-9.8 4.5 0 7.3 2.6 8 6.4h-4c-.6-1.7-1.8-3-4-3-3 0-4.8 2.8-4.8 6.4 0 3.6 1.8 6.3 4.8 6.3 2.2 0 3.4-1.2 4-3h4c-.7 3.9-3.5 6.5-8 6.5-5 0-8.8-4-8.8-9.8zm23.2-10.7V148h-3.9v-20.2h3.9zm14.7 20.2h-3.7v-.7c-.5.4-1.9 1-3.4 1-2.8 0-5.1-1.7-5.1-4.5 0-2.7 2.3-4.5 5.3-4.5 1.2 0 2.6.4 3.2.8v-1c0-1.2-.7-2.1-2.3-2.1-1 0-1.7.5-2 1.3h-3.7c.4-2.5 2.7-4.5 5.9-4.5 3.6 0 5.8 2 5.8 5.4v8.8zm-3.7-3.8v-1c-.3-.7-1.4-1.2-2.5-1.2-1.2 0-2.5.5-2.5 1.7s1.3 1.7 2.5 1.7c1.1 0 2.2-.4 2.5-1.2zm6-.3h3.7c.3 1 1.2 1.5 2.4 1.5 1.1 0 2-.5 2-1.4 0-.6-.5-.9-1.5-1.1l-2.8-.7c-2-.5-3.6-1.5-3.6-3.9 0-2.7 2.4-4.5 5.5-4.5 3.5 0 5.5 1.7 6 4.3h-3.7c-.3-.8-1-1.4-2.2-1.4-1 0-1.8.5-1.8 1.3 0 .6.3 1 1.2 1.1l2.9.7c2.4.6 3.7 2 3.7 4 0 2.8-2.5 4.5-5.7 4.5-3.4 0-5.8-1.6-6.2-4.4zm13.5 0h3.8c.3 1 1.2 1.5 2.3 1.5 1.2 0 2-.5 2-1.4 0-.6-.5-.9-1.4-1.1l-2.8-.7c-2.1-.5-3.6-1.5-3.6-3.9 0-2.7 2.4-4.5 5.5-4.5 3.5 0 5.4 1.7 5.9 4.3h-3.7c-.2-.8-.9-1.4-2.1-1.4-1 0-1.9.5-1.9 1.3 0 .6.4 1 1.3 1.1l2.8.7c2.4.6 3.7 2 3.7 4 0 2.8-2.4 4.5-5.7 4.5-3.3 0-5.7-1.6-6.1-4.4zm18.3-9.8V148h-3.9v-13.9h3.9zm.3-4c0 1.3-1 2.2-2.3 2.2-1.2 0-2.3-.9-2.3-2.2 0-1.2 1-2.2 2.3-2.2 1.2 0 2.3 1 2.3 2.2zm11.1-2.2v3.3c-.4-.3-.9-.4-1.3-.4-1.2 0-2 .7-2 2v1.3h3v3.1h-3V148H862v-10.8h-2.3v-3h2.3v-1.7c0-3.1 2-5 4.9-5 .9 0 1.6.2 2.1.4zm5.9 6.2V148h-3.9v-13.9h3.9zm.3-4c0 1.3-1 2.2-2.3 2.2-1.2 0-2.3-.9-2.3-2.2 0-1.2 1-2.2 2.3-2.2 1.2 0 2.3 1 2.3 2.2zm11.4 13.4h3.6c-.5 3-2.7 4.8-6.1 4.8-4 0-6.8-3-6.8-7.2s2.8-7.3 6.7-7.3c4 0 6.3 2.9 6.3 7v1H881c0 2.2 1.3 3.4 3 3.4 1.3 0 2.2-.5 2.5-1.7zM884 137c-1.5 0-2.5.9-2.9 2.6h5.4c0-1.5-.9-2.6-2.5-2.6zm17.1-3v4c-.5-.4-1.2-.5-1.9-.5-1.3 0-2.3.6-2.6 2v8.5h-3.9v-13.9h3.9v1.4c.6-1 1.7-1.7 3-1.7.7 0 1.3.2 1.5.3z" fill="#FFF" fill-rule="nonzero"/>
    <g>
      <path fill="#CCC" d="M58.8 114.8l-6.5-3.8-5.5 3.2 6.5 3.8 5.5-3.2"/>
      <path fill="#676767" d="M64.3 111l-11.2 6.4-6.3-3.7v1.6l6.9 3.9 11.1-6.3 14 8.1v-1.5L64.3 111"/>
      <path fill="#CCC" d="M47.8 120.8l-6.5-3.8-5.5 3.2 6.5 3.8 5.5-3.2"/>
      <path fill="#676767" d="M53.6 118l5.2-3-10.8 6-5.2 3 10.8-6"/>
      <path fill="#676767" d="M53.3 117l-11.2 6.4-6.3-3.7v1.6l6.9 3.9 11.1-6.3 14 8.1v-1.5L53.3 117"/>
      <path fill="#CCC" d="M37.8 126.8l-6.5-3.8-5.5 3.2 6.5 3.8 5.5-3.2"/>
      <path fill="#676767" d="M42.7 124l5.1-3-10.8 6-5.2 3 10.9-6"/>
      <path fill="#A0A0A0" d="M57.5 132l5.3-3-14.6-8-5.4 3 14.7 8"/>
      <path fill="#676767" d="M43.3 123l-11.2 6.4-6.3-3.7v1.6l6.9 3.9 11.1-6.3 14 8.1v-1.5L43.3 123"/>
      <path fill="#CCC" d="M26.8 132.8l-6.5-3.8-5.5 3.2 6.5 3.8 5.5-3.2"/>
      <path fill="#676767" d="M32.7 130l5.1-3-10.8 6-5.2 3 10.9-6"/>
      <path fill="#A0A0A0" d="M46.5 138l5.3-3-14.6-8-5.4 3 14.7 8"/>
      <path fill="#676767" d="M32.3 130l-11.2 6.4-6.3-3.7v1.6l6.9 3.9 11.1-6.3 14 8.1v-1.5L32.3 130"/>
      <path d="M239.8 152.3L132.3 90h-17.7L8 152.3v20.4L115.4 235H133l106.8-62.3v-10.2-10.2" fill="#545454"/>
      <path d="M239.8 151.9v10.2L133 224h-17.6L7.9 162.1V152L114.5 90h17.7L239.8 152" fill="#292C36"/>
      <path d="M239.8 140.3L132.3 78h-17.7L8 140.3v20.4L115.4 223H133l106.8-62.3v-10.2-10.2" fill="#545454"/>
      <path d="M239.8 139.9v10.2L133 212h-17.6L7.9 150.1V140L114.5 78h17.7L239.8 140" fill="#596177"/>
      <path fill="#5975E8" d="M233.8 144L123.5 80 13.8 144l110.4 64 109.6-64"/>
      <path d="M113 196.8v.2l.1.3v.2l.2.3.1.3.2.2.1.3.2.2.2.3.3.2.2.2.4.3.1.2.7.4c3.7 2.1 9.7 2.1 13.5 0l.6-.4.2-.2.4-.3.1-.2.3-.2.2-.2.2-.3.2-.2.1-.3.1-.3.1-.2.1-.3v-.5c.2-1.5-.7-3-2.7-4.2a14.8 14.8 0 0 0-13.4 0c-1.9 1-2.8 2.5-2.8 3.9v.3M31 141.8v.2l.1.3v.2l.2.3.1.3.2.2.1.3.2.2.2.3.3.2.2.2.4.3.1.2.7.4c3.7 2.1 9.7 2.1 13.5 0l.6-.4.2-.2.4-.3.4-.4.2-.2.2-.3.2-.2.1-.3.1-.3.1-.2.1-.3v-.5c.2-1.5-.7-3-2.7-4.2a14.8 14.8 0 0 0-13.4 0c-1.9 1-2.8 2.5-2.8 3.9v.3" fill="#FFF"/>
      <path d="M56.4 129.8l-.1-.1h-.1v-.1H56l-.2-.1-.2-.1-5.9-3.4c-8.1-4.7-14.8-.9-14.8 8.5v7.5l.2.3.1.2.3.3v.1l.6.4a6 6 0 0 0 3 .7 6 6 0 0 0 3-.7l.4-.4.2-.1.2-.3.1-.2.1-.3v-.4h.1V138c0-6.5.5-6 5.4-3.3l3 2h.2c.3.2.5.3.9.3l1.3-.4c1.6-1 2.9-3.3 2.9-5.1 0-.8-.2-1.4-.6-1.7" fill="#A0A0A0"/>
      <path d="M59.3 126.8l1.7-.8h-.2l-.3.2h-.2l-.2.1-.2.1h-.3v.1l-.3.1H59l-.2.2h-.4l-1.3.7c-4 2.3-7.2 8-7.2 12.5l.1 1.4.5 2.6-.2-1.8c0-5.6 4-12.6 9-15.4" fill="#D5E8FF"/>
      <path d="M112.7 157.2c0-.3-.1-.6-.3-.8l-.2-.4-.4-.7-.3-.3-.5-.4-.4-.2-.7-.3h-.4l-.8-.1h-.4l-1 .2-.4.1-1.4.7a16.3 16.3 0 0 0-7.5 12.8l.1 1.5.2.5c0 .3.1.6.3.8l.2.4.4.6.3.4.5.4.4.2.7.3h.4l.8.1h.4l1-.2.4-.1 1.4-.7c4.2-2.3 7.5-8 7.5-12.8l-.1-1.5-.2-.5z" fill="#FFF"/>
      <path d="M96.3 173.3l-.4-.4-.5-.8-.2-.5-.4-1-.1-.6-.2-1.9a20 20 0 0 1 9-15.7l1.8-.8.5-.1 1.1-.3h1.6l.5.2.7.3h.3l-43.5-25c-1.7-1-4-1-6.5.5-5 3-9 10-9 15.8 0 2.9 1 4.9 2.6 5.8L97.2 174l-.3-.2-.6-.5" fill="#FFF"/>
      <path d="M102.4 173h-.8l-.5-.1-.6-.3-.4-.2-.5-.4-.3-.3-.4-.6-.3-.4-.2-.9-.2-.4-.1-1.5c0-4.6 3.3-10.1 7.5-12.4l1.4-.7.5-.1.9-.2h1.2l.5.1.6.3.4.2.5.4.3.3.4.6.3.4c0 .3.2.6.3.8v.5h.1l-.5-2.6c-.4-2-1.4-3.4-2.8-4-.3-.2-.5-.3-.8-.3l-.6-.2h-1.5a8 8 0 0 0-1.1.3h-.6l-1.8.9a19.6 19.6 0 0 0-9.3 15.5c0 .6 0 1.2.2 1.8l.1.5c.1.4.2.8.4 1l.3.6.5.7.4.4.6.5c1.3.9 3 1 5.1.4l2.6-1v.1h-.4c-.3.2-.7.3-1 .3h-.4z" fill="#D5E8FF"/>
      <path d="M111.3 163.6l-4.3-2.4-.2-.1h-.5l-.2-.1h-.4l-.2.1-.3.2h-.3c-1.6 1-3 3.3-2.9 5.1v.7l.1.2.1.3.1.2.2.2.2.2h.1l.3.2 6 4a21.9 21.9 0 0 1 8.6 15v8.7l.2.2v.2l.3.3.1.1.6.4a6 6 0 0 0 3 .7 6 6 0 0 0 2.9-.7l.5-.4.1-.1.3-.3.2-.4V195.8l.1-6.9c0-9.3-6.6-20.6-14.7-25.3" fill="#A0A0A0"/>
      <path d="M183 151.8v.2l.1.3v.2l.2.3.1.3.2.2.1.3.2.2.2.3.3.2.2.2.4.3.1.2.7.4c3.7 2.1 9.7 2.1 13.5 0l.6-.4.2-.2.4-.3.1-.2.3-.2.2-.2.2-.3.3-.5.1-.3.1-.2.1-.3v-.5c.2-1.5-.7-3-2.7-4.2a14.8 14.8 0 0 0-13.4 0c-1.9 1-2.8 2.5-2.8 3.9v.3M100 98.8v.2l.1.3v.2l.2.3.1.3.2.2.1.3.2.2.2.3.3.2.2.2.4.3.1.2.7.4c3.7 2.1 9.8 2.1 13.5 0l.6-.4.2-.2.4-.3.4-.4.2-.2.2-.3.2-.2.1-.3.1-.3.1-.2.1-.3v-.5c.2-1.5-.7-3-2.7-4.2a14.8 14.8 0 0 0-13.4 0c-1.9 1-2.8 2.5-2.8 3.9v.3" fill="#FFF"/>
      <path d="M126.4 85.8l-.1-.1h-.1v-.1h-.1l-.2-.1-.2-.1-5.9-3.4c-8.1-4.7-14.8-.9-14.8 8.5V98l.2.3.1.2.3.3v.1l.6.4a6 6 0 0 0 3 .7 6 6 0 0 0 3-.7l.4-.4.2-.1.2-.3.1-.2.1-.3v-.4h.1V94c0-6.5.5-6 5.4-3.3l3 2h.2c.3.2.5.3.9.3s.8-.2 1.3-.4c1.6-1 2.9-3.3 2.9-5.1 0-.8-.2-1.4-.6-1.7" fill="#A0A0A0"/>
      <path d="M129.3 82.8l1.7-.8H130.7l-.2.2h-.2l-.2.1-.2.1h-.3v.1l-.3.1h-.2l-.2.2h-.4l-1.3.7c-4 2.3-7.2 8-7.2 12.5l.1 1.4a892 892 0 0 0 .3.8c0-5.6 4-12.5 9-15.4" fill="#D5E8FF"/>
      <path d="M182.7 114.2a6 6 0 0 0-.3-.8l-.2-.4-.4-.7-.3-.3-.5-.4-.4-.2-.7-.3h-.4l-.8-.1h-.4a6 6 0 0 0-1 .2l-.4.1-1.4.7a16.3 16.3 0 0 0-7.5 12.8c0 .5 0 1 .2 1.5v.5l.4.8.2.4.4.6.3.4.5.4.4.2.7.3h.4l.8.1h.4l1-.2.4-.1 1.4-.7c4.2-2.3 7.5-8 7.5-12.8 0-.5 0-1-.2-1.5v-.5z" fill="#FFF"/>
      <path d="M166.3 129.3l-.4-.4-.5-.8-.2-.5-.4-1-.1-.6-.2-1.9a20 20 0 0 1 9-15.7l1.8-.8.5-.1 1.1-.3h1.6l.5.2.7.3h.3l-43.5-25c-1.7-1-4-1-6.5.5-5 3-9 10-9 15.8 0 2.9 1 4.9 2.6 5.8l43.6 25.2-.3-.2-.6-.5" fill="#FFF"/>
      <path d="M172.8 129H171.6l-.4-.1-.7-.3-.4-.2-.5-.4-.3-.3-.4-.6-.3-.4-.2-.9-.2-.4-.1-1.5c0-4.6 3.3-10.1 7.5-12.4l1.4-.7.5-.1.9-.2h1.2l.5.1.6.3.4.2.5.4.3.3.4.6.3.4c0 .3.2.6.3.8v.5h.1l-.5-2.6c-.4-2-1.4-3.4-2.8-4-.3-.2-.5-.3-.8-.3l-.6-.2h-1.5c-.4 0-.8.2-1.1.3h-.6l-1.8.9a19.6 19.6 0 0 0-9.3 15.5c0 .6 0 1.2.2 1.8l.1.5c.1.4.2.8.4 1l.3.6.5.7.4.4.6.5c1.3.9 3 1 5.1.4l2.6-1v.1h-.4c-.3.2-.7.3-1 .3" fill="#D5E8FF"/>
      <path d="M181.3 119.6l-4.3-2.4-.2-.1h-.5l-.2-.1h-.4l-.2.1-.3.2-.3.1c-1.6 1-3 3.2-2.9 5v.7l.1.2.1.3.1.2.2.2.2.2h.1l.3.2 6 4a21.9 21.9 0 0 1 8.6 15v8.7l.2.2v.2l.4.4.6.4a6 6 0 0 0 3 .7 6 6 0 0 0 2.9-.7l.5-.4.1-.1.3-.3v-.2l.2-.2V151.8l.1-6.9c0-9.3-6.6-20.6-14.7-25.3" fill="#A0A0A0"/>
      <path d="M67 120.8v.2l.1.3v.2l.2.3.1.3.2.2.1.3.2.2.2.3.3.2.2.2.4.3.1.2.7.4c3.7 2.1 9.7 2.1 13.5 0l.6-.4.2-.2.4-.3.1-.2.3-.2.2-.2.2-.3.2-.2.1-.3.1-.3.1-.2.1-.3v-.5c.2-1.5-.7-3-2.7-4.2a14.8 14.8 0 0 0-13.4 0c-1.9 1-2.8 2.5-2.8 3.9v.3M150 174.8v.2l.1.3v.2l.2.3.1.3.2.2.1.3.2.2.2.3.3.2.2.2.4.3.1.2.7.4c3.7 2.1 9.7 2.1 13.5 0l.6-.4.2-.2.4-.3.1-.2.3-.2.2-.2.2-.3.2-.2.1-.3.1-.3.1-.2.1-.3v-.5c.2-1.5-.7-3-2.7-4.2a14.8 14.8 0 0 0-13.4 0c-1.9 1-2.8 2.5-2.8 3.9v.3" fill="#FFF"/>
      <path d="M94.4 107.8l-.1-.1h-.1v-.1H94l-.2-.1-.2-.1-5.9-3.4c-8.1-4.7-14.8-.9-14.8 8.5v7.5l.2.3.1.2.3.3v.1l.6.4a6 6 0 0 0 3 .7 6 6 0 0 0 3-.7l.4-.4.2-.1.2-.3.1-.2.1-.3v-.4h.1V116c0-6.5.5-6 5.4-3.3l3 2h.2c.3.2.5.3.9.3l1.3-.4c1.6-1 2.9-3.3 2.9-5.1 0-.8-.2-1.4-.6-1.7" fill="#A0A0A0"/>
      <path d="M97.3 105.8l1.7-.8h-.2l-.3.2h-.2l-.2.1-.5.2-.3.1H97l-.2.2h-.4l-1.3.7c-4 2.3-7.2 8-7.2 12.5l.1 1.4a892 892 0 0 1 .3.8c0-5.6 4-12.6 9-15.4" fill="#2267B9"/>
      <path d="M149.9 136.7l-.2-.5c0-.3-.1-.6-.3-.8l-.2-.4-.4-.7-.3-.3-.5-.4-.4-.2-.7-.3h-.4l-.8-.1h-.4l-1 .2-.4.1-1.4.7a16.2 16.2 0 0 0-7.5 12.8c0 .5 0 1 .2 1.5v.5l.4.8.2.4.4.6.3.4.5.4.4.2.7.3h.4l.8.1h.4l1-.2.4-.1 1.4-.7c4.2-2.3 7.5-8 7.5-12.8l-.1-1.5" fill="#FFF"/>
      <path d="M133 150.9a5 5 0 0 1-.6-.8l-.2-.5-.4-1-.1-.6-.2-1.9a20 20 0 0 1 9-15.7l1.8-.8.5-.1 1.1-.3h1.6l.5.2.7.3h.3l-43.5-25c-1.7-1-4-1-6.5.5-5 3-9 10-9 15.8 0 2.9 1 4.9 2.6 5.8l43.6 25.2-.3-.2-.6-.5-.4-.4z" fill="#FFF"/>
      <path d="M139.8 152H138.6l-.5-.1-.6-.3-.4-.2-.5-.4-.3-.3-.4-.6-.3-.4-.2-.9-.2-.4-.1-1.5c0-4.6 3.3-10.1 7.5-12.4l1.4-.7.5-.1.9-.2h1.2l.5.1.6.3.4.2.5.4.3.3.4.6.3.4.2.8.2.5-.5-2.6c-.4-2-1.4-3.4-2.8-4-.3-.2-.5-.3-.8-.3l-.6-.2h-1.5c-.4 0-.8.2-1.1.3h-.6l-1.8.9a19.6 19.6 0 0 0-9.3 15.5c0 .6 0 1.2.2 1.8l.1.5c.1.4.2.8.4 1l.3.6.5.7.4.4.6.5c1.3.9 3 1 5.1.4l2.6-1v.1h-.4a6 6 0 0 1-1 .3" fill="#D5E8FF"/>
      <path d="M149.3 141.6l-4.3-2.4-.2-.1h-.5l-.2-.1h-.4l-.2.1-.3.2-.3.1c-1.6 1-3 3.2-2.9 5v.7l.1.2.1.3.1.2.2.2.2.2h.1l.3.2 6 4a21.8 21.8 0 0 1 8.6 15v8.7l.2.2v.2l.3.3.2.1.5.4a6 6 0 0 0 3 .7 6 6 0 0 0 2.9-.7l.5-.4.1-.1.3-.3v-.2l.2-.2V173.8l.1-6.9c0-9.3-6.6-20.6-14.7-25.3" fill="#A0A0A0"/>
    </g>
    <path d="M575.8 40h-3.3V24h10.7v3h-7.4v4h6.8v2.9h-6.8V40zm20.3-5.8c0 3.6-2.3 6-5.7 6-3.4 0-5.7-2.4-5.7-6s2.3-6 5.7-6c3.4 0 5.7 2.4 5.7 6zm-3.2 0c0-2-.9-3.4-2.5-3.4s-2.5 1.5-2.5 3.4c0 2 .9 3.3 2.5 3.3s2.5-1.4 2.5-3.3zm12.3-5.9v3.3c-.5-.3-1-.4-1.6-.4-1.1 0-2 .5-2.2 1.6V40H598V28.4h3.3v1.1a3 3 0 0 1 2.6-1.4l1.2.2zm10.7 0l1.9 7.5 2-7.4h3.2L619.5 40h-3l-1.9-7.1-1.9 7.1h-3l-3.5-11.6h3.2l2.1 7.4 2-7.4h2.4zM634.3 40h-3.1v-.6c-.4.4-1.6.8-2.8.8-2.4 0-4.4-1.3-4.4-3.8 0-2.2 2-3.7 4.5-3.7 1 0 2.2.4 2.7.7v-.9c0-1-.6-1.8-2-1.8-.8 0-1.4.5-1.6 1.1h-3c.2-2 2.1-3.7 4.8-3.7 3 0 4.9 1.7 4.9 4.5V40zm-3.1-3.2V36c-.3-.6-1.2-1-2.1-1-1 0-2 .4-2 1.4 0 1 1 1.4 2 1.4s1.8-.3 2-1zm12.8-8.5v3.3c-.5-.3-1-.4-1.7-.4-1 0-2 .5-2.2 1.6V40H637V28.4h3.2v1.1a3 3 0 0 1 2.6-1.4l1.3.2zm9.5 11.7v-1a4 4 0 0 1-3 1.3c-3.3 0-5.2-2.8-5.2-6.1s2-6 5.3-6a4 4 0 0 1 2.9 1.1v-6.2h3.2V40h-3.2zm0-3.9v-3.8a2.5 2.5 0 0 0-2.2-1.4c-1.7 0-2.8 1.4-2.8 3.3 0 1.8 1 3.3 2.8 3.3 1 0 1.8-.6 2.2-1.4zm14.8 3v5.2H665v-16h3.3v1a4 4 0 0 1 2.9-1.2c3.4 0 5.3 2.8 5.3 6.1s-2 6-5.3 6a4 4 0 0 1-3-1.2zm0-6.8V36c.4.8 1.2 1.4 2.2 1.4 1.7 0 2.7-1.5 2.7-3.3 0-1.9-1-3.3-2.8-3.3-1 0-1.7.6-2.1 1.4zM688 40H685v-.6c-.4.4-1.6.8-2.9.8-2.3 0-4.3-1.3-4.3-3.8 0-2.2 2-3.7 4.5-3.7 1 0 2.2.4 2.7.7v-.9c0-1-.6-1.8-2-1.8-.8 0-1.4.5-1.6 1.1h-3.1c.3-2 2.2-3.7 4.9-3.7 3 0 4.9 1.7 4.9 4.5V40zm-3.1-3.2V36c-.3-.6-1.2-1-2.1-1-1 0-2 .4-2 1.4 0 1 1 1.4 2 1.4s1.8-.3 2-1zm5-.3h3.1c.3.9 1 1.3 2 1.3s1.6-.4 1.6-1.1c0-.5-.3-.8-1.1-1l-2.4-.5c-1.7-.5-3-1.4-3-3.3 0-2.3 2-3.8 4.6-3.8 3 0 4.6 1.4 5 3.6h-3c-.3-.6-.8-1.1-2-1.1-.7 0-1.4.3-1.4 1 0 .5.3.8 1 1l2.4.5c2 .5 3 1.6 3 3.4 0 2.4-2 3.8-4.7 3.8-2.8 0-4.8-1.4-5.1-3.8zm11.3 0h3.2c.3.9 1 1.3 2 1.3s1.6-.4 1.6-1.1c0-.5-.4-.8-1.2-1l-2.3-.5c-1.8-.5-3-1.4-3-3.3 0-2.3 2-3.8 4.6-3.8 3 0 4.5 1.4 5 3.6H708c-.2-.6-.8-1.1-1.8-1.1-.8 0-1.6.3-1.6 1 0 .5.3.8 1 1l2.4.5c2 .5 3.1 1.6 3.1 3.4 0 2.4-2 3.8-4.7 3.8-2.8 0-4.9-1.4-5.2-3.8zM570 340.8c1.4.5 2.5 2 2.5 3.7 0 3-2 4.5-5.3 4.5h-6.7v-16h6.1c3.4 0 5.4 1.5 5.4 4.4 0 1.7-1 3-2 3.4zm-6.3-1.2h2.7c1.6 0 2.5-.6 2.5-2 0-1.2-.9-1.8-2.5-1.8h-2.7v3.8zm0 2.6v4h3.2c1.5 0 2.4-.8 2.4-2 0-1.3-.9-2-2.4-2h-3.2zm20.6 6.8h-3v-.6c-.5.4-1.6.8-2.9.8-2.3 0-4.3-1.3-4.3-3.8 0-2.2 2-3.7 4.5-3.7 1 0 2.2.4 2.6.7v-.9c0-1-.6-1.8-1.9-1.8-.9 0-1.4.5-1.7 1.1h-3c.3-2 2.2-3.7 4.8-3.7 3.1 0 5 1.7 5 4.5v7.4zm-3-3.2v-.8c-.4-.6-1.2-1-2.2-1-1 0-2 .4-2 1.4 0 1 1 1.4 2 1.4s1.8-.3 2.1-1zm5-2.6c0-3.6 2.2-6 5.5-6 3 0 4.8 1.6 5.1 4.1h-3.2c-.1-.9-.8-1.4-1.9-1.4-1.5 0-2.4 1.3-2.4 3.3 0 2 1 3.3 2.4 3.3 1 0 1.8-.5 2-1.4h3.1c-.3 2.5-2.2 4.2-5 4.2-3.4 0-5.7-2.5-5.7-6.1zm20.2 5.8l-3.5-4.7-.9 1v3.7H599v-16.9h3.2v9.6l4-4.3h4l-4.7 5 4.9 6.6h-3.8zm14-11.6l1.9 7.4 2-7.4h3.2L624 349h-3l-2-7.1-1.8 7.1h-3l-3.5-11.6h3.2l2.1 7.4 1.9-7.4h2.5zm18.4 11.6h-3.1v-.6c-.4.4-1.6.8-2.9.8-2.3 0-4.3-1.3-4.3-3.8 0-2.2 2-3.7 4.5-3.7 1 0 2.2.4 2.7.7v-.9c0-1-.6-1.8-2-1.8-.8 0-1.4.5-1.6 1.1H629c.3-2 2.2-3.7 4.9-3.7 3 0 4.9 1.7 4.9 4.5v7.4zm-3.1-3.2v-.8c-.3-.6-1.2-1-2.1-1-1 0-2 .4-2 1.4 0 1 1 1.4 2 1.4s1.8-.3 2-1zm12.7-8.5v3.3c-.4-.3-1-.4-1.6-.4-1 0-2 .5-2.2 1.6v7.2h-3.2v-11.6h3.2v1.1a3 3 0 0 1 2.6-1.4l1.2.2zm9.6 11.7v-1a4 4 0 0 1-3 1.3c-3.3 0-5.2-2.8-5.2-6.1s1.9-6 5.3-6a4 4 0 0 1 2.9 1.1v-6.2h3.2V349h-3.2zm0-3.9v-3.8a2.5 2.5 0 0 0-2.2-1.4c-1.7 0-2.8 1.4-2.8 3.3 0 1.8 1 3.3 2.8 3.3 1 0 1.8-.6 2.2-1.4zm14.8 3v5.2h-3.3v-16h3.3v1a4 4 0 0 1 2.9-1.2c3.3 0 5.3 2.8 5.3 6.1s-2 6-5.3 6a4 4 0 0 1-3-1.2zm0-6.8v3.8c.3.8 1.2 1.4 2.1 1.4 1.8 0 2.8-1.5 2.8-3.3 0-1.9-1-3.3-2.8-3.3-1 0-1.8.6-2.1 1.4zm19.8 7.7h-3.1v-.6c-.4.4-1.6.8-2.9.8-2.3 0-4.3-1.3-4.3-3.8 0-2.2 2-3.7 4.5-3.7 1 0 2.2.4 2.7.7v-.9c0-1-.6-1.8-2-1.8-.8 0-1.4.5-1.6 1.1h-3.1c.3-2 2.2-3.7 4.9-3.7 3 0 4.9 1.7 4.9 4.5v7.4zm-3.1-3.2v-.8c-.3-.6-1.2-1-2.1-1-1 0-2 .4-2 1.4 0 1 1 1.4 2 1.4.9 0 1.8-.3 2-1zm5-.3h3.1c.3.9 1 1.3 2 1.3s1.6-.4 1.6-1.1c0-.5-.3-.8-1.1-1l-2.4-.5c-1.8-.5-3-1.4-3-3.3 0-2.3 2-3.8 4.6-3.8 3 0 4.6 1.4 5 3.6h-3.1c-.2-.6-.8-1.1-1.8-1.1-.8 0-1.6.3-1.6 1 0 .5.4.8 1 1l2.5.5c2 .5 3 1.6 3 3.4 0 2.4-2 3.8-4.7 3.8-2.8 0-4.8-1.4-5.2-3.8zm11.3 0h3.2c.3.9 1 1.3 2 1.3s1.6-.4 1.6-1.1c0-.5-.4-.8-1.2-1l-2.3-.5c-1.8-.5-3-1.4-3-3.3 0-2.3 2-3.8 4.6-3.8 3 0 4.5 1.4 5 3.6h-3.1c-.2-.6-.8-1.1-1.9-1.1-.7 0-1.5.3-1.5 1 0 .5.3.8 1 1l2.4.5c2 .5 3.1 1.6 3.1 3.4 0 2.4-2 3.8-4.7 3.8-2.9 0-4.9-1.4-5.2-3.8z" fill="#7F7F7F" fill-rule="nonzero"/>
  </g>
</svg>
