<svg width="1235px" height="160px" viewBox="0 0 1235 160" xmlns="http://www.w3.org/2000/svg">
  <g fill="none" fill-rule="evenodd">
    <rect x="2.5" y="2.5" width="145" height="80" rx="10" transform="translate(0 35)" fill="#DFD9D9" stroke="#DFD9D9" stroke-width="5"/>
    <rect x="2.5" y="2.5" width="145" height="80" rx="10" transform="translate(1066 35)" fill="#DFD9D9" stroke="#DFD9D9" stroke-width="5"/>
    <path fill="#6A6A6A" d="M208 81.5L193 89V74z"/>
    <path d="M193 81.5h-19.9" stroke="#6A6A6A" stroke-width="3" stroke-linecap="square"/>
    <path fill="#6A6A6A" d="M1043 81.5l-15 7.5V74z"/>
    <path d="M1028 81.5h-19.9" stroke="#6A6A6A" stroke-width="3" stroke-linecap="square"/>
    <path stroke="#494848" stroke-width="3.75" fill="#FFF" stroke-linejoin="round" d="M230 40h135l23.5 43.4L365 125H230l23.5-41.5z"/>
    <path stroke="#C20955" stroke-width="3.75" fill="#FF2575" stroke-linejoin="round" d="M850 40h102l23.5 43.4L952 125H850l23.5-41.5z"/>
    <path stroke="#5B44A6" stroke-width="3.75" fill="#9160CD" stroke-linejoin="round" d="M700 40h151l23.5 43.4L851 125H700l23.5-41.5z"/>
    <path stroke="#383283" stroke-width="3.75" fill="#736AE3" stroke-linejoin="round" d="M544 40h157l23.5 43.4L701 125H544l23.5-41.5z"/>
    <path stroke="#494848" stroke-width="3.75" fill="#FFF" stroke-linejoin="round" d="M395 40h150l23.5 43.4L545 125H395l23.5-41.5z"/>
    <path d="M270 86.6v-5.3h-1.7v-2.5h1.7v-3h3.1v3h2.4v2.5h-2.4v5c0 .8.5 1.2 1.3 1.2.5 0 1-.2 1.3-.4V90c-.4.2-1.1.3-2 .3-2.3 0-3.7-1.1-3.7-3.6zm18.2-2.2c0 3.4-2.2 5.8-5.4 5.8-3.3 0-5.5-2.4-5.5-5.8s2.2-5.8 5.4-5.8c3.3 0 5.5 2.4 5.5 5.8zm-3 0c0-1.9-.9-3.2-2.4-3.2-1.6 0-2.4 1.3-2.4 3.2 0 1.9.8 3.2 2.4 3.2 1.5 0 2.3-1.3 2.3-3.2zm12.3 5.6l-3.3-4.5-.9 1V90h-3.1V73.7h3.1V83l3.8-4.2h3.9l-4.6 4.8 4.8 6.4h-3.7zm12-3.7h2.9c-.4 2.4-2.2 4-5 4-3.3 0-5.4-2.4-5.4-5.9 0-3.4 2.2-5.8 5.4-5.8s5 2.3 5 5.5v1H305c0 1.7 1 2.7 2.4 2.7 1 0 1.8-.5 2-1.5zm-2.1-5.2c-1.2 0-2 .7-2.3 2.1h4.3c0-1.2-.8-2.1-2-2.1zm7 8.9V78.8h3.1v1a4 4 0 013-1.2c2.5 0 4 1.6 4 4.1V90h-3.1v-6.7c0-1.1-.6-2-1.9-2a2 2 0 00-2 1.6V90h-3.1zm15.7-11.2V90h-3V78.8h3zm.3-3.2c0 1-.8 1.8-1.8 1.8s-1.9-.8-1.9-1.8.9-1.8 1.9-1.8c1 0 1.8.8 1.8 1.8zm11.4 11.9V90h-9.4v-2l5.4-6.7h-5.2v-2.5h9v2l-5.2 6.7h5.4zm9.1-1.2h3c-.5 2.4-2.2 4-5 4-3.3 0-5.4-2.4-5.4-5.9 0-3.4 2.2-5.8 5.3-5.8 3.3 0 5.1 2.3 5.1 5.5v1h-7.4c0 1.7 1 2.7 2.4 2.7 1 0 1.8-.5 2-1.5zm-2-5.2c-1.3 0-2.1.7-2.4 2.1h4.4c0-1.2-.8-2.1-2-2.1zm13.8-2.3v3a3 3 0 00-1.6-.3c-1 0-1.9.5-2.1 1.6V90h-3.1V78.8h3V80c.6-.8 1.5-1.3 2.6-1.3.5 0 1 0 1.1.2zM432 86.7h3c.3.8 1 1.2 1.9 1.2 1 0 1.6-.4 1.6-1.1 0-.5-.4-.8-1.1-1l-2.3-.5c-1.7-.3-2.9-1.2-2.9-3.1 0-2.2 2-3.6 4.4-3.6 2.9 0 4.4 1.3 4.8 3.4h-3c-.1-.6-.7-1-1.7-1-.8 0-1.5.3-1.5 1 0 .4.3.7 1 .8l2.3.6c2 .4 3 1.5 3 3.2 0 2.3-2 3.7-4.6 3.7-2.7 0-4.6-1.3-5-3.6zm18.4-.4h2.9c-.4 2.4-2.2 4-5 4-3.2 0-5.4-2.4-5.4-5.9 0-3.4 2.3-5.8 5.4-5.8 3.3 0 5 2.3 5 5.5v1H446c.1 1.7 1 2.7 2.4 2.7 1 0 1.8-.5 2.1-1.5zm-2.1-5.2c-1.2 0-2 .7-2.3 2.1h4.3c0-1.2-.7-2.1-2-2.1zm7 8.9V78.8h3.1v1a4 4 0 013-1.2c2.6 0 4 1.6 4 4.1V90h-3.1v-6.7c0-1.1-.6-2-1.9-2a2 2 0 00-2 1.6V90h-3zm13.3-3.4v-5.3H467v-2.5h1.7v-3h3.1v3h2.4v2.5h-2.4v5c0 .8.5 1.2 1.3 1.2.4 0 1-.2 1.3-.4V90c-.4.2-1.2.3-2 .3-2.3 0-3.7-1.1-3.7-3.6zm14.8-.3h2.9c-.4 2.4-2.2 4-5 4-3.3 0-5.4-2.4-5.4-5.9 0-3.4 2.2-5.8 5.4-5.8s5 2.3 5 5.5v1H479c0 1.7 1 2.7 2.4 2.7 1 0 1.8-.5 2-1.5zm-2.1-5.2c-1.2 0-2 .7-2.4 2.1h4.4c0-1.2-.8-2.1-2-2.1zm7 8.9V78.8h3.1v1a4 4 0 013-1.2c2.5 0 4 1.6 4 4.1V90h-3.1v-6.7c0-1.1-.7-2-1.9-2a2 2 0 00-2 1.6V90h-3.1zm12-5.6c0-3.5 2.1-5.8 5.3-5.8 2.8 0 4.6 1.6 4.9 4h-3c-.2-.8-.9-1.4-1.9-1.4-1.4 0-2.3 1.3-2.3 3.2 0 1.9.9 3.2 2.3 3.2 1 0 1.7-.5 1.8-1.4h3.1c-.3 2.4-2.1 4-4.9 4-3.2 0-5.4-2.3-5.4-5.8zm15.2-5.6V90h-3.1V78.8h3.1zm.3-3.2c0 1-.9 1.8-1.8 1.8-1 0-1.9-.8-1.9-1.8s.9-1.8 1.9-1.8c1 0 1.8.8 1.8 1.8zm11.4 11.9V90h-9.4v-2l5.4-6.7H518v-2.5h9v2l-5.2 6.7h5.4zm9.1-1.2h2.9c-.4 2.4-2.2 4-5 4-3.2 0-5.4-2.4-5.4-5.9 0-3.4 2.3-5.8 5.4-5.8 3.3 0 5 2.3 5 5.5v1h-7.4c.1 1.7 1 2.7 2.5 2.7 1 0 1.8-.5 2-1.5zm-2-5.2c-1.3 0-2.1.7-2.4 2.1h4.3c0-1.2-.7-2.1-2-2.1zm13.7-2.3v3a3 3 0 00-1.5-.3c-1 0-2 .5-2.1 1.6V90h-3.1V78.8h3V80c.5-.8 1.5-1.3 2.6-1.3.5 0 1 0 1.1.2z" fill="#3D4251" fill-rule="nonzero"/>
    <path d="M912.8 86.2c0-1.2.9-2 2-2a2 2 0 011.9 2 2 2 0 11-3.9 0zm5.3 0c0-1.2.8-2 1.9-2a2 2 0 012 2 2 2 0 11-4 0zm5.2 0c0-1.2.9-2 2-2a2 2 0 011.9 2 2 2 0 11-3.9 0zM593.3 79l1.9 7.2 2-7.1h3l-3.5 11.2H594l-1.8-6.9-1.9 6.8h-2.8L584 79.2h3.1l2 7.1 1.8-7.1h2.4zm18.8 5.7c0 3.4-2.3 5.8-5.5 5.8-3.3 0-5.5-2.4-5.5-5.8 0-3.5 2.3-5.9 5.5-5.9 3.3 0 5.5 2.4 5.5 5.9zm-3.1 0c0-1.9-.9-3.3-2.4-3.3-1.6 0-2.4 1.4-2.4 3.3 0 1.8.8 3.2 2.4 3.2 1.5 0 2.4-1.4 2.4-3.2zm11.8-5.7v3.1a3 3 0 00-1.5-.3c-1 0-2 .5-2.1 1.5v7H614V79h3.1v1c.5-.7 1.4-1.3 2.5-1.3l1.2.2zm9.2 11.3v-1c-.5.6-1.6 1.2-2.8 1.2-3.3 0-5-2.6-5-5.8 0-3.2 1.8-5.9 5-5.9 1.2 0 2.3.6 2.8 1.2v-6h3.1v16.3H630zm0-3.8v-3.7a2.4 2.4 0 00-2.1-1.3c-1.7 0-2.7 1.4-2.7 3.2 0 1.8 1 3.1 2.7 3.1 1 0 1.8-.5 2.1-1.3zm8.9 2.8v5h-3.1V79.2h3.1v.9c.5-.6 1.6-1.2 2.8-1.2 3.3 0 5.1 2.7 5.1 5.9 0 3.1-1.8 5.8-5.1 5.8-1.2 0-2.3-.6-2.8-1.2zm0-6.5v3.7c.4.8 1.2 1.3 2.1 1.3 1.7 0 2.7-1.3 2.7-3.1s-1-3.2-2.7-3.2c-1 0-1.7.6-2.1 1.3zm13-3.7v11.2h-3.1V79h3zm.3-3.3c0 1.1-.9 1.8-1.9 1.8-1 0-1.8-.7-1.8-1.8 0-1 .8-1.7 1.8-1.7s1.9.7 1.9 1.8zm9.2 10.8h2.9c-.4 2.4-2.2 3.9-5 3.9-3.3 0-5.4-2.4-5.4-5.8s2.2-5.9 5.4-5.9 5 2.3 5 5.6v1H657c0 1.6 1 2.6 2.4 2.6 1 0 1.8-.5 2-1.4zm-2.1-5.3c-1.2 0-2 .8-2.3 2.2h4.3c0-1.2-.8-2.2-2-2.2zm6.3 3.4c0-3.5 2.2-5.9 5.4-5.9 2.8 0 4.5 1.7 4.9 4h-3c-.3-.8-1-1.3-2-1.3-1.4 0-2.2 1.3-2.2 3.2 0 1.8.8 3.1 2.3 3.1 1 0 1.6-.5 1.8-1.3h3c-.3 2.4-2 4-4.8 4-3.2 0-5.4-2.4-5.4-5.8zm19 1.9h2.9c-.5 2.4-2.2 3.9-5 3.9-3.3 0-5.4-2.4-5.4-5.8s2.2-5.9 5.4-5.9 5 2.3 5 5.6v1h-7.4c0 1.6 1 2.6 2.4 2.6 1 0 1.8-.5 2-1.4zm-2.1-5.3c-1.2 0-2 .8-2.4 2.2h4.4c0-1.2-.8-2.2-2-2.2zm13.8-2.3v3.1a3 3 0 00-1.6-.3c-1 0-1.9.5-2.1 1.5v7h-3.1V79h3.1v1c.5-.7 1.4-1.3 2.5-1.3l1.2.2zM748.7 86.9v-5.3H747V79h1.7v-3h3v3h2.5v2.5h-2.4v4.9c0 .8.5 1.3 1.3 1.3.4 0 1-.2 1.3-.4V90c-.4.3-1.2.4-2 .4-2.3 0-3.7-1.2-3.7-3.6zm18.2-2.2c0 3.4-2.2 5.8-5.5 5.8-3.2 0-5.4-2.4-5.4-5.8 0-3.5 2.2-5.9 5.4-5.9 3.3 0 5.5 2.4 5.5 5.9zm-3 0c0-1.9-1-3.3-2.5-3.3s-2.4 1.4-2.4 3.3c0 1.8.9 3.2 2.4 3.2 1.6 0 2.4-1.4 2.4-3.2zm12.3 5.5l-3.3-4.5-1 1v3.5h-3V74h3v9.2l3.9-4.1h3.9l-4.6 4.7 4.7 6.5h-3.6zm11.7-10.9c0-1-.8-1.8-2-1.8-1.3 0-2 1-2 2.1h-3.3c.3-2.8 2.3-5 5.3-5 3.3 0 5.2 1.9 5.2 4.6 0 2-1.5 3.5-3 5.1l-3 3.2h6.1v2.8h-10.6v-2.1l4.9-5.2c1.4-1.4 2.4-2.5 2.4-3.7zm11.6 11h-3L792.3 79h3.3l2.5 7.4 2.5-7.4h3.2l-4.3 11.2zm12.8-3.7h2.8c-.4 2.4-2.1 3.9-5 3.9-3.2 0-5.4-2.4-5.4-5.8s2.3-5.9 5.4-5.9c3.3 0 5.1 2.3 5.1 5.6v1h-7.5c.1 1.6 1.1 2.6 2.5 2.6 1 0 1.8-.5 2-1.4zm-2.1-5.3c-1.3 0-2.1.8-2.4 2.2h4.4c0-1.2-.8-2.2-2-2.2zm6.3 3.4c0-3.5 2.2-5.9 5.4-5.9 2.8 0 4.5 1.7 4.9 4h-3.1c-.2-.8-.9-1.3-1.9-1.3-1.4 0-2.3 1.3-2.3 3.2 0 1.8 1 3.1 2.4 3.1 1 0 1.6-.5 1.8-1.3h3c-.3 2.4-2 4-4.9 4-3.1 0-5.3-2.4-5.3-5.8z" fill="#FFF" fill-rule="nonzero"/>
    <path d="M1117 91V69.2h6.6c2.4 0 4.2.7 5.5 2.1a8 8 0 012 5.7v6.3c0 2.3-.6 4.2-2 5.6a7.2 7.2 0 01-5.5 2.1h-6.6zm4-3.1h2.3c1.4 0 2.4-.4 3-1.2.6-.8.9-2 .9-3.7v-5.7c0-1.7-.3-3-1-3.8-.5-.8-1.5-1.2-2.9-1.2h-2.4V88zm21 3.4c-2.2 0-3.8-.6-5-1.6a5.6 5.6 0 01-1.8-4.4v-4.8c0-2 .6-3.5 1.8-4.5 1.2-1.1 2.9-1.6 5-1.6 2.2 0 3.8.5 5 1.6 1.2 1 1.8 2.6 1.8 4.5v4.8c0 1.9-.6 3.4-1.8 4.4a7.4 7.4 0 01-5 1.6zm0-3c1 0 1.7-.3 2.2-.8.5-.5.7-1.3.7-2.4v-4.5c0-1.1-.2-2-.7-2.4-.5-.6-1.2-.8-2.2-.8-1 0-1.7.2-2.2.8-.4.5-.7 1.3-.7 2.4V85c0 1 .3 1.9.7 2.4.5.5 1.2.7 2.2.7zm18.3 3c-2.3 0-4-.6-5.3-1.6-1.2-1-1.8-2.6-1.8-4.6v-4.6c0-2 .6-3.5 1.8-4.6 1.3-1 3-1.5 5.3-1.5 2.1 0 3.7.5 4.8 1.4 1.1 1 1.7 2.5 2 4.4l-4 .3c0-1.1-.3-2-.7-2.4-.5-.5-1.2-.7-2.2-.7-1 0-1.8.3-2.3.8-.5.5-.7 1.3-.7 2.5V85c0 1.2.2 2 .7 2.5.5.5 1.3.7 2.4.7 1 0 1.7-.1 2.1-.5.5-.4.7-1 .8-2l3.8.3c0 1.7-.7 3-1.7 4-1 .8-2.7 1.3-5 1.3zM36 72.4v-3.9h18.3v4h-7V90h-4.5V72.4H36zM66.4 85h4c-.5 3.3-3 5.4-6.9 5.4-4.5 0-7.6-3.3-7.6-8.1 0-4.7 3.2-8.2 7.6-8.2 4.5 0 7 3.2 7 7.8V83H60.3c.2 2.4 1.5 3.8 3.4 3.8 1.5 0 2.6-.7 3-2zm-3-7.4c-1.6 0-2.8 1-3.2 3h6c0-1.7-1-3-2.7-3zm24.1-3.1l-5.3 7.5L88 90h-4.8l-3.4-4.9-3.4 4.9H72l5.6-8-5.3-7.6H77l3 4.4 3-4.4h4.6zm3.5 10.9v-7.4h-2.4v-3.5H91V70h4.3v4.3h3.4v3.5h-3.4v6.8c0 1.2.6 1.8 1.8 1.8.6 0 1.4-.2 1.8-.5v3.8c-.5.3-1.6.5-2.8.5-3.1 0-5.1-1.6-5.1-5z" fill="#3D4251" fill-rule="nonzero"/>
  </g>
</svg>
