<svg width="1446px" height="381px" viewBox="0 0 1446 381" xmlns="http://www.w3.org/2000/svg">
  <g fill="none" fill-rule="evenodd">
    <g transform="translate(303 19)">
      <rect fill="#DFD9D9" width="194" height="99" rx="10"/>
      <g transform="translate(0 61)">
        <path d="M0 0h194v28a10 10 0 0 1-10 10H10A10 10 0 0 1 0 28V0z" fill="#1E1935"/>
        <rect fill="#FFF" x="9" y="8" width="22" height="22" rx="5"/>
        <rect fill="#FFF" x="40" y="8" width="22" height="22" rx="5"/>
        <rect fill="#FFF" x="71" y="8" width="22" height="22" rx="5"/>
        <rect fill="#FFF" x="102" y="8" width="22" height="22" rx="5"/>
        <rect fill="#FFF" x="133" y="8" width="22" height="22" rx="5"/>
        <rect fill="#FFF" x="164" y="8" width="22" height="22" rx="5"/>
      </g>
      <path d="M35.3 36.8l-7.6-4.4v-2.3l7.6-4.4v2l-6.2 3.6 6.2 3.5v2zm6 3.5V23.9h2v16.4h-2zm16-5.5c-.2.8-.7 1.5-1.3 1.8-.6.4-1.5.6-2.8.6-1.2 0-2.2-.3-3-1-.8-.6-1.1-1.5-1.1-2.7v-2.8c0-1.2.3-2.1 1-2.7.8-.7 1.8-1 3-1 1.3 0 2.3.3 3 1 .8.6 1.2 1.5 1.2 2.8v1.8h-5.9v1c0 .7.2 1.1.5 1.4.3.3.7.5 1.4.5.5 0 1-.1 1.3-.3.3-.2.6-.5.7-1l2 .6zm-5.9-4.3v.7H55v-.5c0-.8-.1-1.3-.4-1.6-.3-.3-.7-.4-1.3-.4-.7 0-1.1.1-1.4.4-.2.3-.4.8-.4 1.4zM60 37v-9.8h2.4v1.6h.4c.3-.6.6-1 1.1-1.3a3 3 0 0 1 1.7-.5c.8 0 1.4.3 2 .8.4.6.6 1.3.6 2.3V37h-2.4v-6.5c0-.5 0-.9-.3-1.1-.2-.3-.5-.5-1-.5-.3 0-.7.2-1 .4-.5.2-.8.6-1.1 1V37h-2.4zm14.6-1.8a2 2 0 0 0 1-.3c.4-.2.7-.5 1-.9v-4.6l-.8-.4-.8-.2c-.6 0-1 .2-1.4.5-.3.3-.4.8-.4 1.4v2.8c0 .6.1 1 .4 1.3.2.3.5.4 1 .4zm1.6.2c-.2.5-.5 1-1 1.3-.4.3-1 .5-1.6.5-.9 0-1.6-.4-2-1a4 4 0 0 1-.8-2.5v-3c0-1.2.4-2 1-2.7.7-.6 1.6-1 2.8-1a5.4 5.4 0 0 1 2 .5v-3.6H79V37h-2.3v-1.6H76zm9.6 1.8c-1.3 0-2.3-.4-3-1-.8-.6-1.1-1.5-1.1-2.6v-3c0-1 .3-2 1-2.6.8-.7 1.8-1 3-1 1.4 0 2.4.3 3 1 .8.6 1.2 1.5 1.2 2.7v2.9c0 1.1-.4 2-1.1 2.6-.7.7-1.7 1-3 1zm0-1.9c.6 0 1-.1 1.3-.4.3-.3.4-.8.4-1.4v-2.8c0-.6-.1-1-.4-1.4-.3-.3-.7-.5-1.3-.5-.6 0-1 .2-1.3.5-.3.3-.5.8-.5 1.4v2.7c0 .7.2 1.2.5 1.5.2.3.7.4 1.3.4zm9 1.7v-8h-2.4v-1.8h2.4v-.6c0-1 .4-1.7 1-2.2.7-.6 1.6-.9 2.7-.9a7 7 0 0 1 2.4.5l-.3 1.6a5.6 5.6 0 0 0-1.9-.3c-.4 0-.8.1-1 .3-.3.3-.5.6-.5 1.1v.5h3.5V29h-3.5v8h-2.4zm14.3.2c-1.2 0-2-.3-2.7-.9-.6-.6-1-1.4-1-2.5V29H103v-1.8h2.3v-3.3h2.4v3.3h3.6V29h-3.6v4.5c0 .6.1 1 .4 1.4.3.3.6.4 1.1.4a5.6 5.6 0 0 0 2-.3l.2 1.8a8.2 8.2 0 0 1-2.5.4zm13.4-2.4c-.3.8-.8 1.5-1.4 1.8-.6.4-1.5.6-2.8.6-1.2 0-2.2-.3-3-1-.8-.6-1.1-1.5-1.1-2.7v-2.8c0-1.2.3-2.1 1-2.7.8-.7 1.8-1 3-1 1.3 0 2.3.3 3 1 .8.6 1.2 1.5 1.2 2.8v1.8h-5.9v1c0 .7.2 1.1.5 1.4.3.3.7.5 1.4.5.5 0 1-.1 1.3-.3.3-.2.6-.5.7-1l2 .6zm-6-4.3v.7h3.5v-.5c0-.8-.1-1.3-.4-1.6-.3-.3-.7-.4-1.3-.4-.7 0-1.1.1-1.4.4-.2.3-.4.8-.4 1.4zM131 37l-2-3.2L127 37h-2.4l3.2-5-3-4.8h2.4l1.9 3 1.7-3h2.4l-3 4.7 3.2 5.1h-2.5zm10.6.2c-1.2 0-2-.3-2.7-.9-.6-.6-1-1.4-1-2.5V29h-2.3v-1.8h2.3v-3.3h2.4v3.3h3.6V29h-3.6v4.5c0 .6.1 1 .4 1.4.3.3.6.4 1.1.4a5.6 5.6 0 0 0 2-.3l.2 1.8a8.2 8.2 0 0 1-2.5.4zm8.2 3V24h2v16.4h-2zm8-3.4V35l6.3-3.6-6.3-3.7v-1.9l7.6 4.4v2.4l-7.6 4.3z" fill="#1E1935" fill-rule="nonzero"/>
    </g>
    <g transform="translate(535 19)">
      <rect fill="#DFD9D9" width="194" height="99" rx="10"/>
      <g transform="translate(0 61)">
        <path d="M0 0h194v28a10 10 0 0 1-10 10H10A10 10 0 0 1 0 28V0z" fill="#1E1935"/>
        <rect fill="#8A91F8" x="9" y="8" width="22" height="22" rx="5"/>
        <rect fill="#8A91F8" x="40" y="8" width="22" height="22" rx="5"/>
        <rect fill="#8A91F8" x="71" y="8" width="22" height="22" rx="5"/>
        <rect fill="#8A91F8" x="102" y="8" width="22" height="22" rx="5"/>
        <rect fill="#8A91F8" x="133" y="8" width="22" height="22" rx="5"/>
        <rect fill="#8A91F8" x="164" y="8" width="22" height="22" rx="5"/>
      </g>
      <path fill="#1E1935" fill-rule="nonzero" d="M93.1 37V23.9h2.3v11.2h5.3V37z"/>
    </g>
    <g transform="translate(628 257)">
      <rect fill="#DFD9D9" width="194" height="99" rx="10"/>
      <g transform="translate(0 61)">
        <path d="M0 0h194v28a10 10 0 0 1-10 10H10A10 10 0 0 1 0 28V0z" fill="#1E1935"/>
        <rect fill="#FFF" x="9" y="8" width="22" height="22" rx="5"/>
        <rect fill="#8A91F8" x="40" y="8" width="22" height="22" rx="5"/>
        <rect fill="#8A91F8" x="71" y="8" width="22" height="22" rx="5"/>
        <rect fill="#8A91F8" x="102" y="8" width="22" height="22" rx="5"/>
        <rect fill="#8A91F8" x="133" y="8" width="22" height="22" rx="5"/>
        <rect fill="#8A91F8" x="164" y="8" width="22" height="22" rx="5"/>
        <path d="M51 8h6a5 5 0 0 1 5 5v12a5 5 0 0 1-5 5h-6V8zM82 8h6a5 5 0 0 1 5 5v12a5 5 0 0 1-5 5h-6V8zM113 8h6a5 5 0 0 1 5 5v12a5 5 0 0 1-5 5h-6V8zM144 8h6a5 5 0 0 1 5 5v12a5 5 0 0 1-5 5h-6V8zM175 8h6a5 5 0 0 1 5 5v12a5 5 0 0 1-5 5h-6V8z" fill="#D8F064"/>
      </g>
      <path d="M66.5 38V22H70v13h7.4v3H66.5zm22.6 0h-3v-.6c-.4.4-1.6.8-2.9.8-2.3 0-4.3-1.3-4.3-3.8 0-2.2 2-3.7 4.5-3.7 1 0 2.2.4 2.6.7v-.9c0-1-.5-1.8-1.8-1.8-1 0-1.5.5-1.8 1.1h-3c.3-2 2.2-3.7 4.9-3.7 3 0 4.8 1.7 4.8 4.5V38zm-3-3.2V34c-.3-.6-1.2-1-2.2-1-1 0-2 .4-2 1.4 0 1 1 1.4 2 1.4s1.9-.3 2.1-1zm5-2.6c0-3.6 2.2-6 5.5-6 3 0 4.8 1.6 5.1 4.1h-3.1c-.2-.9-1-1.4-2-1.4-1.5 0-2.4 1.3-2.4 3.3 0 2 1 3.3 2.4 3.3 1 0 1.8-.5 2-1.4h3.1c-.3 2.5-2.2 4.2-5 4.2-3.4 0-5.7-2.5-5.7-6.1zm19.7 2h3c-.5 2.5-2.3 4-5.2 4-3.4 0-5.6-2.4-5.6-6 0-3.5 2.3-6 5.6-6 3.4 0 5.2 2.3 5.2 5.7v1h-7.7c.1 1.7 1 2.8 2.5 2.8 1.1 0 2-.5 2.2-1.5zm-2.2-5.5c-1.3 0-2.1.8-2.4 2.2h4.5c0-1.2-.8-2.2-2.1-2.2zm14.8 9.3v-1a4 4 0 0 1-3 1.3c-3.3 0-5.2-2.8-5.2-6.1s1.9-6 5.2-6a4 4 0 0 1 3 1.1v-6.2h3.2V38h-3.2zm0-3.9v-3.8a2.5 2.5 0 0 0-2.2-1.4c-1.8 0-2.8 1.4-2.8 3.3 0 1.8 1 3.3 2.8 3.3 1 0 1.8-.6 2.2-1.4z" fill="#1E1935" fill-rule="nonzero"/>
    </g>
    <g transform="translate(898 257)">
      <rect fill="#DFD9D9" width="194" height="99" rx="10"/>
      <g transform="translate(0 61)">
        <path d="M0 0h194v28a10 10 0 0 1-10 10H10A10 10 0 0 1 0 28V0z" fill="#1E1935"/>
        <rect fill="#FFF" x="9" y="8" width="22" height="22" rx="5"/>
        <rect fill="#F64D88" x="40" y="8" width="22" height="22" rx="5"/>
        <rect fill="#F64D88" x="71" y="8" width="22" height="22" rx="5"/>
        <rect fill="#F64D88" x="102" y="8" width="22" height="22" rx="5"/>
        <rect fill="#F64D88" x="133" y="8" width="22" height="22" rx="5"/>
        <rect fill="#F64D88" x="164" y="8" width="22" height="22" rx="5"/>
      </g>
      <path d="M83.7 26.4l2 7.4 2-7.4h3.1L87.3 38h-3l-1.9-7.1-1.9 7.1h-3L74 26.4h3.3l2 7.4 2-7.4h2.4zm12.1 0V38h-3.2V26.4h3.2zm.3-3.4c0 1.1-.9 1.9-2 1.9-1 0-1.8-.8-1.8-1.9 0-1 .8-1.8 1.9-1.8 1 0 1.9.8 1.9 1.8zm3.2 11.5V29h-1.8v-2.6h1.8v-3.2h3.2v3.2h2.6V29h-2.6v5c0 1 .5 1.4 1.3 1.4.5 0 1-.2 1.4-.4V38c-.4.2-1.2.3-2 .3-2.4 0-3.9-1.1-3.9-3.7zm8.3 3.5V21.1h3.2v6.3c.6-.7 1.8-1.3 3.1-1.3 2.6 0 4.1 1.7 4.1 4.3V38h-3.2v-7c0-1.1-.6-2-1.9-2-1 0-1.8.6-2.1 1.6V38h-3.2z" fill="#1E1935" fill-rule="nonzero"/>
    </g>
    <g transform="translate(1168 257)">
      <rect fill="#DFD9D9" width="194" height="99" rx="10"/>
      <g transform="translate(0 61)">
        <path d="M0 0h194v28a10 10 0 0 1-10 10H10A10 10 0 0 1 0 28V0z" fill="#1E1935"/>
        <rect fill="#FFF" x="9" y="8" width="22" height="22" rx="5"/>
        <rect fill="#7FF4C8" x="40" y="8" width="22" height="22" rx="5"/>
        <rect fill="#7FF4C8" x="71" y="8" width="22" height="22" rx="5"/>
        <rect fill="#7FF4C8" x="102" y="8" width="22" height="22" rx="5"/>
        <rect fill="#7FF4C8" x="133" y="8" width="22" height="22" rx="5"/>
        <rect fill="#7FF4C8" x="164" y="8" width="22" height="22" rx="5"/>
      </g>
      <path d="M66.5 38v-1a4 4 0 0 1-2.9 1.3c-3.3 0-5.2-2.8-5.2-6.1s1.9-6 5.2-6a4 4 0 0 1 3 1.1v-6.2h3.2V38h-3.3zm0-3.9v-3.8a2.5 2.5 0 0 0-2.1-1.4c-1.8 0-2.8 1.4-2.8 3.3 0 1.8 1 3.3 2.8 3.3 1 0 1.8-.6 2.1-1.4zm13.1-7.8v3.3c-.4-.3-1-.4-1.6-.4-1 0-2 .5-2.2 1.6V38h-3.2V26.4h3.2v1.1a3 3 0 0 1 2.6-1.4l1.2.2zm9.2 7.9h3c-.4 2.5-2.3 4-5.2 4-3.4 0-5.6-2.4-5.6-6 0-3.5 2.3-6 5.6-6 3.4 0 5.2 2.3 5.2 5.7v1h-7.7c.1 1.7 1 2.8 2.5 2.8 1.1 0 2-.5 2.2-1.5zm-2.2-5.5c-1.3 0-2.1.8-2.4 2.2h4.5c0-1.2-.8-2.2-2.1-2.2zm16.8 9.3h-3v-.6c-.4.4-1.6.8-2.9.8-2.3 0-4.3-1.3-4.3-3.8 0-2.2 2-3.7 4.5-3.7 1 0 2.2.4 2.6.7v-.9c0-1-.5-1.8-1.8-1.8-1 0-1.5.5-1.8 1.1h-3c.3-2 2.2-3.7 4.9-3.7 3 0 4.8 1.7 4.8 4.5V38zm-3-3.2V34c-.3-.6-1.2-1-2.2-1-1 0-2 .4-2 1.4 0 1 1 1.4 2 1.4s1.9-.3 2.1-1zm15-7.2c.7-.8 1.8-1.5 3.5-1.5 2.4 0 3.8 1.7 3.8 4.3V38h-3.2v-7c0-1.2-.6-2-1.7-2-.8 0-1.6.5-1.8 1.5V38h-3.3v-7c0-1.2-.5-2-1.6-2-.8 0-1.6.5-1.8 1.5V38H106V26.4h3.2v1c.6-.8 1.6-1.3 3-1.3 1.3 0 2.4.6 3 1.5zm9.2 7h3.2c.3.8 1 1.2 2 1.2s1.6-.4 1.6-1.1c0-.5-.4-.8-1.2-1l-2.3-.5c-1.8-.5-3-1.4-3-3.3 0-2.3 2-3.8 4.6-3.8 3 0 4.5 1.4 5 3.6h-3.1c-.2-.6-.8-1.1-1.9-1.1-.7 0-1.5.3-1.5 1 0 .5.3.8 1 1l2.4.5c2 .5 3.1 1.6 3.1 3.4 0 2.4-2 3.8-4.7 3.8-2.9 0-4.9-1.4-5.2-3.8z" fill="#1E1935" fill-rule="nonzero"/>
    </g>
    <g transform="translate(767 19)">
      <rect fill="#DFD9D9" width="194" height="99" rx="10"/>
      <path d="M85.2 35.5c.5 0 .8 0 1.2-.2l1-.7V33h-2.2c-.4 0-.7 0-.9.2-.2.2-.3.5-.3 1s0 .8.3 1c.2.2.5.3 1 .3zm-.5 1.7a3 3 0 0 1-2-.8c-.6-.5-1-1.2-1-2 0-1 .4-1.6 1-2.1.5-.5 1.2-.7 2.1-.7h2.5v-1.4c0-.5-.1-.8-.4-1-.2-.3-.6-.4-1.2-.4-.5 0-.9.1-1.1.3-.3.2-.5.7-.6 1.3l-2-.4c.2-1 .6-1.8 1.2-2.3.6-.5 1.5-.7 2.6-.7 1.2 0 2.1.3 2.8.8.7.5 1 1.2 1 2.3v4.1c0 .5.1.8.4 1h1.1V37c-.7.1-1.4.1-1.9-.1s-.8-.7-1-1.4H88a3.7 3.7 0 0 1-3.2 1.7zm12.5 0c-1.3 0-2.4-.4-3.1-1-.8-.6-1.1-1.5-1.1-2.7v-2.8c0-1.2.3-2.1 1-2.7.8-.7 1.9-1 3.2-1 1.3 0 2.3.3 3 1a4 4 0 0 1 1 2.5l-2.2.2c0-.7-.2-1.2-.5-1.4-.3-.3-.7-.4-1.3-.4-.7 0-1.1.1-1.4.4-.3.3-.5.8-.5 1.5v2.6c0 .7.2 1.2.5 1.5.3.3.8.4 1.4.4.6 0 1 0 1.3-.3.3-.2.4-.6.5-1.2l2.3.2c-.1 1-.5 1.8-1 2.4-.7.5-1.7.8-3 .8zm15-2.4c-.4.8-.9 1.5-1.5 1.8-.6.4-1.5.6-2.7.6-1.3 0-2.3-.3-3-1-.8-.6-1.2-1.5-1.2-2.7v-2.8c0-1.2.4-2.1 1.1-2.7.8-.7 1.8-1 3-1 1.3 0 2.3.3 3 1 .8.6 1.1 1.5 1.1 2.8v1.8h-5.8v1c0 .7.1 1.1.4 1.4.3.3.8.5 1.4.5.6 0 1-.1 1.3-.3.4-.2.6-.5.8-1l2 .6zm-6-4.3v.7h3.5v-.5c0-.8-.2-1.3-.5-1.6-.2-.3-.7-.4-1.3-.4-.6 0-1 .1-1.3.4-.3.3-.4.8-.4 1.4zm12.2 4.7a2 2 0 0 0 1-.3c.4-.2.7-.5 1-.9v-4.6l-.8-.4-.8-.2c-.6 0-1 .2-1.4.5-.2.3-.4.8-.4 1.4v2.8c0 .6.1 1 .4 1.3.2.3.5.4 1 .4zm1.6.2c-.2.5-.5 1-1 1.3-.4.3-1 .5-1.6.5-.9 0-1.6-.4-2-1a4 4 0 0 1-.8-2.5v-3c0-1.2.4-2 1-2.7.7-.6 1.6-1 2.8-1a5.4 5.4 0 0 1 2 .5v-3.6h2.5V37h-2.4v-1.6h-.5z" fill="#1E1935" fill-rule="nonzero"/>
      <g transform="translate(0 61)">
        <path d="M0 0h194v28a10 10 0 0 1-10 10H10A10 10 0 0 1 0 28V0z" fill="#1E1935"/>
        <rect fill="#D8F064" x="9" y="8" width="22" height="22" rx="5"/>
        <rect fill="#D8F064" x="40" y="8" width="22" height="22" rx="5"/>
        <rect fill="#D8F064" x="71" y="8" width="22" height="22" rx="5"/>
        <rect fill="#D8F064" x="102" y="8" width="22" height="22" rx="5"/>
        <rect fill="#D8F064" x="133" y="8" width="22" height="22" rx="5"/>
        <rect fill="#D8F064" x="164" y="8" width="22" height="22" rx="5"/>
      </g>
    </g>
    <g transform="translate(999 19)">
      <rect fill="#DFD9D9" width="194" height="99" rx="10"/>
      <g transform="translate(0 61)">
        <path d="M0 0h194v28a10 10 0 0 1-10 10H10A10 10 0 0 1 0 28V0z" fill="#1E1935"/>
        <rect fill="#F64D88" x="9" y="8" width="22" height="22" rx="5"/>
        <rect fill="#F64D88" x="40" y="8" width="22" height="22" rx="5"/>
        <rect fill="#F64D88" x="71" y="8" width="22" height="22" rx="5"/>
        <rect fill="#F64D88" x="102" y="8" width="22" height="22" rx="5"/>
        <rect fill="#F64D88" x="133" y="8" width="22" height="22" rx="5"/>
        <rect fill="#F64D88" x="164" y="8" width="22" height="22" rx="5"/>
      </g>
      <path d="M75.5 37.2c-1.5 0-2.6-.4-3.3-1.2-.8-.8-1.2-2-1.2-3.4v-4.3c0-1.4.4-2.6 1.2-3.4.7-.8 1.8-1.2 3.2-1.2 1.4 0 2.4.4 3.1 1 .7.8 1 1.8 1.2 3.2l-2.4.1c0-.9-.3-1.5-.5-1.8-.3-.4-.8-.6-1.4-.6-.7 0-1.3.3-1.6.7-.2.4-.4 1.2-.4 2.2v4c0 1 .2 1.7.5 2.1.3.5.8.7 1.6.7.7 0 1.2-.3 1.5-.7.3-.5.4-1.3.4-2.3h-2v-2h4.4v2.2c0 1.5-.4 2.7-1.1 3.5-.8.8-1.8 1.2-3.2 1.2zm0-15c-.5 0-1 0-1.2-.2-.3-.1-.5-.4-.5-.8V21c0-.4.2-.7.5-.8.3-.2.7-.3 1.2-.3s.9 0 1.2.3c.3.1.4.4.4.8v.2c0 .4-.1.7-.4.8-.3.2-.7.3-1.2.3zM87.4 37l-1.2-5.5L85 37h-2.2l-1.6-9.8h2.1l.9 7.3 1-5.6H87l1.2 5.5.8-7.2h2L89.7 37h-2.2zm5.6 0v-1.8h2.8V29H93v-1.8h5.2v8h2.8V37h-8zM97 25.5c-.5 0-.9 0-1.2-.2-.3-.2-.5-.4-.5-.9v-.1c0-.4.2-.7.5-.9l1.2-.2c.5 0 .9 0 1.2.2.3.2.5.5.5.9v.1c0 .5-.2.7-.5.9-.3.2-.7.2-1.2.2zm12.4 11.7c-1.2 0-2-.3-2.7-.9-.6-.6-1-1.4-1-2.5V29h-2.3v-1.8h2.3v-3.3h2.4v3.3h3.6V29h-3.6v4.5c0 .6.1 1 .4 1.4.3.3.6.4 1.1.4a5.6 5.6 0 0 0 2-.3l.2 1.8a8.2 8.2 0 0 1-2.5.4zm5-.2V24h2.4v4.8h.5c.2-.6.6-1 1-1.3.5-.3 1-.5 1.7-.5.8 0 1.4.3 2 .8.4.6.7 1.3.7 2.3V37h-2.4v-6.4c0-.5-.1-1-.3-1.2-.3-.3-.6-.5-1-.5a2 2 0 0 0-1.1.4l-1 1V37h-2.4z" fill="#1E1935" fill-rule="nonzero"/>
    </g>
    <g transform="translate(1231 19)">
      <rect fill="#DFD9D9" width="194" height="99" rx="10"/>
      <g transform="translate(1 61)">
        <path d="M0 0h194v28a10 10 0 0 1-10 10H10A10 10 0 0 1 0 28V0z" fill="#1E1935"/>
        <rect fill="#7FF4C8" x="9" y="8" width="22" height="22" rx="5"/>
        <rect fill="#7FF4C8" x="40" y="8" width="22" height="22" rx="5"/>
        <rect fill="#7FF4C8" x="71" y="8" width="22" height="22" rx="5"/>
        <rect fill="#7FF4C8" x="102" y="8" width="22" height="22" rx="5"/>
        <rect fill="#7FF4C8" x="133" y="8" width="22" height="22" rx="5"/>
        <rect fill="#7FF4C8" x="164" y="8" width="22" height="22" rx="5"/>
      </g>
      <path d="M65.1 37.2c-1.4 0-2.5-.4-3.3-1.2-.7-.8-1.1-2-1.1-3.4v-4.3c0-1.4.4-2.6 1.1-3.4.8-.8 1.9-1.2 3.3-1.2 1.3 0 2.4.4 3 1 .8.8 1.1 1.8 1.2 3.2L67 28c0-.9-.2-1.5-.5-1.8-.2-.4-.7-.6-1.3-.6-.8 0-1.3.3-1.6.7-.3.4-.4 1.2-.4 2.2v4c0 1 .1 1.7.4 2.1.3.5.9.7 1.6.7.8 0 1.3-.3 1.6-.7.3-.5.4-1.3.4-2.3h-2v-2h4.4v2.2c0 1.5-.4 2.7-1.2 3.5-.7.8-1.8 1.2-3.2 1.2zm0-15c-.4 0-.8 0-1.1-.2-.4-.1-.5-.4-.5-.8V21c0-.4.1-.7.5-.8.3-.2.7-.3 1.1-.3.6 0 1 0 1.3.3.3.1.4.4.4.8v.2c0 .4-.2.7-.5.8-.3.2-.7.3-1.2.3zm10.4 13a2 2 0 0 0 1-.3c.4-.2.7-.5 1-.9v-4.6l-.8-.4-.8-.2c-.6 0-1 .2-1.4.5-.3.3-.4.8-.4 1.4v2.8c0 .6.1 1 .4 1.3.2.3.5.4 1 .4zm1.6.2c-.2.5-.5 1-1 1.3-.4.3-1 .5-1.6.5-.9 0-1.6-.4-2-1a4 4 0 0 1-.8-2.5v-3c0-1.2.4-2 1-2.7.7-.6 1.6-1 2.8-1a5.4 5.4 0 0 1 2 .5v-3.6H80V37h-2.3v-1.6H77zm6 1.6v-9.8h2.3v1.7h.5c.2-.7.5-1.2 1-1.4a3 3 0 0 1 1.6-.5c.8 0 1.3.3 1.8.7.4.5.6 1.2.6 2v1.7h-2.2v-.9c0-.5 0-1-.3-1.2-.2-.2-.5-.4-1-.4a2 2 0 0 0-1 .4c-.4.2-.7.5-1 1V37h-2.3zm18.6-2.2c-.3.8-.8 1.5-1.4 1.8-.6.4-1.5.6-2.7.6-1.3 0-2.3-.3-3-1-.8-.6-1.2-1.5-1.2-2.7v-2.8c0-1.2.4-2.1 1.1-2.7.8-.7 1.8-1 3-1 1.3 0 2.3.3 3 1 .7.6 1.1 1.5 1.1 2.8v1.8h-5.8v1c0 .7.1 1.1.4 1.4.3.3.8.5 1.4.5.6 0 1-.1 1.3-.3.3-.2.6-.5.8-1l2 .6zm-6-4.3v.7h3.5v-.5c0-.8-.1-1.3-.4-1.6-.2-.3-.7-.4-1.3-.4-.6 0-1 .1-1.3.4-.3.3-.4.8-.4 1.4zm11.6 5c.4 0 .8 0 1.2-.2l.9-.7V33h-2.1c-.4 0-.7 0-1 .2l-.2 1c0 .5 0 .8.3 1 .2.2.5.3 1 .3zm-.5 1.7a3 3 0 0 1-2.1-.8c-.6-.5-.8-1.2-.8-2 0-1 .2-1.6.8-2.1.6-.5 1.3-.7 2.2-.7h2.5v-1.4c0-.5-.1-.8-.4-1-.3-.3-.7-.4-1.2-.4s-.9.1-1.2.3l-.6 1.3-2-.4c.3-1 .7-1.8 1.3-2.3.6-.5 1.4-.7 2.6-.7 1.2 0 2.1.3 2.8.8.7.5 1 1.2 1 2.3v4.1c0 .5.1.8.4 1h1.1V37c-.7.1-1.4.1-1.9-.1s-.8-.7-1-1.4h-.4a3.7 3.7 0 0 1-3.1 1.7zm9.8-7.3V37h-2v-9.8h2v1.3h.3c.2-.5.4-.8.7-1 .3-.3.6-.4 1-.4s.7 0 1 .3c.2.2.4.6.4 1h.4c.2-.4.4-.7.8-1 .3-.2.6-.3 1-.3.5 0 .9.2 1.2.6.2.4.4 1 .4 1.7V37h-2v-7.2c0-.4 0-.7-.2-.9 0-.2-.2-.2-.3-.2-.2 0-.4 0-.6.3a4 4 0 0 0-.6 1v7h-1.9v-7.2l-.1-.9c-.1-.2-.2-.2-.4-.2s-.4 0-.6.3l-.5 1zm13.4 7.2a8 8 0 0 1-2.3-.3c-.7-.2-1.4-.5-2-1l.7-1.5a6.5 6.5 0 0 0 3.6 1.1c.6 0 1 0 1.3-.2.3-.2.5-.5.5-.9s-.2-.7-.5-.9l-1.6-.4a6.7 6.7 0 0 1-2.8-1c-.5-.4-.8-1-.8-2 0-.9.3-1.6 1-2.2.7-.5 1.6-.8 2.7-.8a6.6 6.6 0 0 1 3.9 1.2l-.6 1.6c-.5-.4-1-.6-1.6-.8-.5-.2-1-.3-1.6-.3a2 2 0 0 0-1 .3c-.4.1-.5.4-.5.8s.2.7.5.9l1.9.5c1.1.2 2 .5 2.5 1 .6.4.8 1 .8 1.9 0 1-.3 1.7-1.1 2.2-.8.6-1.8.8-3 .8z" fill="#1E1935" fill-rule="nonzero"/>
    </g>
    <path d="M628 129.5l95 113.4M400 129.5l323 113.4M400 129.5l595 113.4M400 128.5l865 114.4M1092 128.5l-97 114.4M1329 129.5l-64 113.4M864 128.5L723 242.9" stroke="#979797" stroke-width="2" stroke-linecap="square" stroke-dasharray="1 5"/>
    <path d="M25 41h3.2l3.4 13.5L35 41H39l-5.2 20H30l-3.5-13.2L23 61h-3.8L14 41h4.2l3.2 13.5L25 41zm29 13.5c0 4.4-2.8 7.5-7 7.5s-7-3-7-7.5c0-4.4 2.8-7.5 7-7.5s7 3 7 7.5zm-4-.5c0-2.3-1-4-3-4s-3 1.7-3 4 1 4 3 4 3-1.7 3-4zm16-7.7v4c-.6-.3-1.3-.5-2-.5-1.5 0-2.6.8-2.9 2.1V61H57V46.3h4.1v1.5c.6-1 1.9-1.8 3.3-1.8a4 4 0 0 1 1.6.3zm11.7 15.4v-1.3c-.6.8-2.1 1.6-3.8 1.6-4.4 0-6.9-3.5-6.9-7.8 0-4.2 2.5-7.8 7-7.8 1.6 0 3 .8 3.7 1.6v-8H82v21.7h-4.3zm.3-5.4v-4.6a3 3 0 0 0-2.6-1.7c-2.1 0-3.4 1.7-3.4 4s1.3 4 3.4 4c1.1 0 2.2-.7 2.6-1.7zm19.2 4.2V67H93V47.3h4.2v1.2c.7-.8 2.2-1.5 3.8-1.5 4.5 0 7 3.5 7 7.5s-2.5 7.5-7 7.5c-1.6 0-3-.7-3.8-1.5zm-.2-8.8v4.6a3 3 0 0 0 2.6 1.7c2.1 0 3.4-1.7 3.4-4s-1.3-4-3.4-4a3 3 0 0 0-2.6 1.7zm17-4.7v15h-4V47h4zm0-4.5c0 1.5-1.2 2.5-2.5 2.5s-2.5-1-2.5-2.5c0-1.4 1.2-2.5 2.5-2.5s2.5 1 2.5 2.5zM127 57h3.9c-.5 3-2.9 5-6.6 5-4.4 0-7.3-3-7.3-7.5 0-4.3 3-7.5 7.2-7.5 4.4 0 6.8 3 6.8 7.1v1.3h-10c.2 2.1 1.4 3.4 3.3 3.4 1.4 0 2.4-.6 2.7-1.8zm-2.8-7c-1.6 0-2.8 1-3.2 3h6c0-1.7-1-3-2.8-3zm7.8 4.5c0-4.4 3-7.5 7.3-7.5 3.8 0 6.3 2.1 6.7 5.2h-4.2c-.2-1.1-1.1-1.8-2.5-1.8-2 0-3.1 1.7-3.1 4.1 0 2.4 1.2 4.1 3.1 4.1 1.4 0 2.3-.7 2.5-1.8h4.2c-.4 3.1-2.9 5.2-6.7 5.2-4.3 0-7.3-3-7.3-7.5zm25 2.5h3.9c-.5 3-2.9 5-6.6 5-4.4 0-7.3-3-7.3-7.5 0-4.3 3-7.5 7.2-7.5 4.4 0 6.8 3 6.8 7.1v1.3h-10c.2 2.1 1.4 3.4 3.3 3.4 1.4 0 2.4-.6 2.7-1.8zm-2.8-7c-1.6 0-2.8 1-3.2 3h6c0-1.7-1-3-2.8-3zm8.8 7.4h4.2c.3 1 1.3 1.6 2.5 1.6 1.3 0 2.2-.5 2.2-1.4 0-.7-.5-1-1.5-1.3l-3.1-.6c-2.3-.5-4-1.6-4-4 0-2.8 2.7-4.7 6.1-4.7 3.8 0 6 1.7 6.5 4.4h-4c-.3-.8-1-1.4-2.4-1.4-1 0-2 .5-2 1.4 0 .5.4.9 1.3 1l3.2.8c2.6.6 4 2 4 4.1 0 3-2.7 4.7-6.2 4.7-3.7 0-6.4-1.7-6.8-4.6zM26 82.8h-3.8v-1.7H28v1c0 4.2-2.7 6.9-6.6 6.9-4.2 0-7.4-3.1-7.4-8s3.2-8 7.3-8c3.4 0 5.7 1.9 6.3 4.8h-2c-.7-1.8-2-3-4.3-3-3 0-5.2 2.5-5.2 6.2s2 6.2 5.3 6.2c2.8 0 4.4-1.7 4.6-4.4zm9.9.2H32v6h-2V74h5.9c3.1 0 5.1 1.5 5.1 4.5S39 83 35.9 83zm3.1-5c0-1.8-1-3-3.2-3H32v6h3.8c2.1 0 3.2-1.2 3.2-3zm4-2.3V74h13v1.7h-5.5V89h-2V75.7H43zM58 83v-2h6v2h-6zm14.8-5.5c0-1.6-1-2.7-2.8-2.7-1.8 0-2.8 1.3-3 3.2h-2c.3-3 2.2-5 5-5 3 0 4.7 1.7 4.7 4.4 0 2-1.6 3.6-3.1 5.4l-4 4.4H75V89H65v-1.3l5-5.6c1.5-1.8 2.8-3.1 2.8-4.6zM14 291v-20h4.3v16.3H28v3.7H14zm21-14v15h-4v-15h4zm1-4.5c0 1.5-1.2 2.5-2.5 2.5s-2.5-1-2.5-2.5c0-1.4 1.2-2.5 2.5-2.5s2.5 1 2.5 2.5zm3 19.5v-14.7h4v1.4c.8-1 2.2-1.7 3.9-1.7 3.3 0 5.1 2.2 5.1 5.4v9.6h-4v-8.7c0-1.6-.8-2.6-2.4-2.6-1.2 0-2.3.7-2.6 2v9.3h-4zm26-1.8v-.9c-.6.8-2 1.6-3.5 1.6-4.1 0-6.5-3.5-6.5-7.5s2.4-7.4 6.5-7.4c1.6 0 3 .7 3.6 1.5v-1.2H69v13.3c0 5-3 7.4-7 7.4-3.8 0-6.3-2-6.7-5.3H59c.4 1.4 1.3 2.1 2.9 2.1 2 0 3-1.2 3-3.6zm0-3.8v-4.9a3.1 3.1 0 0 0-2.7-1.5c-2 0-3.3 1.7-3.3 4s1.2 4 3.3 4c1.2 0 2.2-.7 2.7-1.6zm20-9.4v14.7h-4v-1.4c-.8 1-2.2 1.7-4 1.7-3.2 0-5-2.2-5-5.4V277h4v8.8c0 1.5.8 2.6 2.4 2.6 1.2 0 2.3-.8 2.5-2V277H85zm8 0v15h-4v-15h4zm1-4.5c0 1.5-1.2 2.5-2.5 2.5s-2.5-1-2.5-2.5c0-1.4 1.2-2.5 2.5-2.5s2.5 1 2.5 2.5zm2 14.6h4.2c.3 1.1 1.3 1.7 2.5 1.7 1.3 0 2.2-.5 2.2-1.5 0-.7-.5-1-1.5-1.3l-3.1-.7c-2.3-.6-4-1.8-4-4.3 0-3 2.7-5 6.1-5 3.8 0 6 1.9 6.5 4.7h-4c-.3-.8-1-1.5-2.4-1.5-1 0-2 .5-2 1.5 0 .6.4 1 1.3 1.2l3.2.7c2.6.6 4 2.1 4 4.4 0 3.1-2.7 5-6.2 5-3.7 0-6.4-1.8-6.8-4.9zm16.3.2v-7H110V277h2.3v-4h4.2v4h3.3v3.3h-3.3v6.4c0 1.2.6 1.7 1.7 1.7.6 0 1.3-.2 1.8-.5v3.6c-.6.3-1.6.5-2.7.5-3 0-5-1.5-5-4.7zM127 277v15h-4v-15h4zm0-4.5c0 1.5-1.2 2.5-2.5 2.5s-2.5-1-2.5-2.5c0-1.4 1.2-2.5 2.5-2.5s2.5 1 2.5 2.5zm2 11.5c0-4.7 3-8 7.3-8 3.8 0 6.3 2.3 6.7 5.5h-4.2c-.2-1.1-1.1-1.9-2.5-1.9-2 0-3.1 1.8-3.1 4.4 0 2.6 1.2 4.4 3.1 4.4 1.4 0 2.3-.8 2.5-2h4.2c-.4 3.4-2.9 5.6-6.7 5.6-4.3 0-7.3-3.3-7.3-8zm24.3 3.3v-7H151V277h2.3v-4h4.2v4h3.3v3.3h-3.3v6.4c0 1.2.6 1.7 1.7 1.7.6 0 1.3-.2 1.8-.5v3.6c-.6.3-1.6.5-2.7.5-3 0-5-1.5-5-4.7zM177 284c0 4.7-2.8 8-7 8s-7-3.3-7-8 2.8-8 7-8 7 3.3 7 8zm-4 .5c0-2.6-1-4.5-3-4.5s-3 1.9-3 4.5 1 4.5 3 4.5 3-1.9 3-4.5zm16.3 7.5l-4.2-6-1.1 1.2v4.8h-4v-22h4v12.5l4.9-5.6h4.9l-5.8 6.4 6 8.7h-4.7zm15.7-5.3h3.9c-.5 3.2-2.9 5.3-6.6 5.3-4.4 0-7.3-3.3-7.3-8 0-4.6 3-8 7.2-8 4.4 0 6.8 3.1 6.8 7.6v1.3h-10c.2 2.3 1.4 3.7 3.3 3.7 1.4 0 2.4-.6 2.7-2zm-2.8-6.7c-1.6 0-2.8 1-3.2 3h6c0-1.7-1-3-2.8-3zm9.8 12v-14.7h4v1.4c.8-1 2.2-1.7 3.9-1.7 3.3 0 5.1 2.2 5.1 5.4v9.6h-4v-8.7c0-1.6-.8-2.6-2.4-2.6-1.2 0-2.3.7-2.6 2v9.3h-4zm16-4.9h4.2c.3 1.1 1.3 1.7 2.5 1.7 1.3 0 2.2-.5 2.2-1.5 0-.7-.5-1-1.5-1.3l-3.1-.7c-2.3-.6-4-1.8-4-4.3 0-3 2.7-5 6.1-5 3.8 0 6 1.9 6.5 4.7h-4c-.3-.8-1-1.5-2.4-1.5-1 0-2 .5-2 1.5 0 .6.4 1 1.3 1.2l3.2.7c2.6.6 4 2.1 4 4.4 0 3.1-2.7 5-6.2 5-3.7 0-6.4-1.8-6.8-4.9zM13 316.6h2c.4 1.2 1.4 1.8 2.7 1.8 1.4 0 2.4-.6 2.4-1.8 0-.8-.5-1.2-1.7-1.6l-2.3-.6c-1.6-.4-2.8-1.2-2.8-3 0-2 1.8-3.4 4.2-3.4 2.5 0 4 1.2 4.4 3.3h-2c-.3-1-1-1.7-2.5-1.7-1.1 0-2.2.6-2.2 1.7 0 .8.5 1.1 1.6 1.5l2.3.5c2 .5 2.9 1.6 2.9 3.2 0 2.2-1.8 3.5-4.3 3.5s-4.3-1.3-4.7-3.4zm13.9 1.7v5.7H25v-15.8h1.9v1.4A4 4 0 0 1 30 308c3.3 0 5 2.8 5 6 0 3-1.7 5.9-5 5.9a4 4 0 0 1-3.1-1.6zm.1-6.5v4.4a3 3 0 0 0 2.7 1.8c2.1 0 3.3-1.7 3.3-4s-1.2-4-3.3-4a3 3 0 0 0-2.7 1.8zm19 8h-1.8v-.9c-.5.5-1.7 1.1-3 1.1-2.3 0-4.2-1.4-4.2-3.7 0-2.2 2-3.6 4.3-3.6 1.2 0 2.4.5 2.9 1v-1.5c0-1.5-.9-2.5-2.5-2.5-1.2 0-2 .5-2.3 1.6h-2c.5-2 2.1-3.3 4.3-3.3 2.7 0 4.3 1.6 4.3 4v7.8zm-2-3.2v-1.2c-.3-.8-1.4-1.4-2.5-1.4-1.3 0-2.5.6-2.5 2s1.2 2 2.5 2c1.1 0 2.2-.6 2.5-1.4zm4-4.6c0-4.8 3-8 7-8 3.2 0 5.4 1.9 6 4.8h-2c-.6-1.8-1.9-3-4-3-3 0-5 2.5-5 6.2s2 6.2 5 6.2c2.1 0 3.4-1.2 4-3h2c-.6 2.9-2.8 4.8-6 4.8-4 0-7-3.2-7-8zm18.7 12h-2l1.8-4.4L62 308h2.1l3.5 9.1L71 308h2l-6.3 16z" fill="#7F7F7F" fill-rule="nonzero"/>
  </g>
</svg>
